<ttFont>
          <CharString index="0">
            406 708 rmoveto
            -214 -133 -150 -209 -4 hvcurveto
            -209 4 133 -150 214 104 callgsubr
            209 -4 -134 150 -213 hhcurveto
            -633 vmoveto
            -97 callsubr
            return
          </CharString>
          <CharString index="1">
            527 255 rmoveto
            135 -73 130 -166 -166 -73 -130 -135 -168 96 -97 163 87 54 20 27 48 vhcurveto
            88 -5 vlineto
            -29 -44 -50 -21 -82 hhcurveto
            -108 -57 58 90 -10 hvcurveto
            386 hlineto
            -386 74 rmoveto
            104 6 77 42 64 hhcurveto
            64 78 -42 -104 6 hvcurveto
            return
          </CharString>
          <CharString index="2">
            99 hlineto
            -296 698 rlineto
            -95 hlineto
            -296 -698 rlineto
            99 hlineto
            75 179 rlineto
            339 hlineto
            -303 88 rmoveto
            133 319 -17 callsubr
            132 -319 rlineto
            -5 -267 vlineto
            return
          </CharString>
          <CharString index="3">
            304 520 rmoveto
            -155 -101 -107 -158 -158 101 -107 155 154 102 107 158 158 -102 107 -154 hvcurveto
            -447 vmoveto
            -77 -88 50 133 132 88 49 77 76 89 -49 -132 -133 -89 -50 -76 hvcurveto
            return
          </CharString>
          <CharString index="4">
            -54 -42 47 -58 hhcurveto
            -46 -34 -37 -74 -6 hvcurveto
            44 hlineto
            25 6 11 18 26 return
          </CharString>
          <CharString index="5">
            48 -46 -52 26 -70 hhcurveto
            13 -445 rmoveto
            -95 -69 62 118 118 69 62 95 65 54 -32 -43 39 hvcurveto
            -210 vlineto
            -43 -39 -54 -32 -65 hhcurveto
            return
          </CharString>
          <CharString index="6">
            575 -29 callgsubr
            -439 vlineto
            -125 -98 -61 -98 -98 -98 61 125 vhcurveto
            439 -91 -436 vlineto
            -188 153 -84 134 134 153 84 188 vhcurveto
            return
          </CharString>
          <CharString index="7">
            -95 callgsubr
            40 41 30 74 57 48 -13 -15 36 vhcurveto
            7 83 hlineto
            return
          </CharString>
          <CharString index="8">
            20 16 -11 -20 -35 -25 -11 -32 -19 -24 7 16 -26 hvcurveto
            -16 -35 rlineto
            -25 37 37 -6 24 hhcurveto
            71 40 30 62 42 -32 28 -45 return
          </CharString>
          <CharString index="9">
            154 94 120 166 165 95 -120 -154 -154 -95 -120 -165 return
          </CharString>
          <CharString index="10">
            -57 callsubr
            -98 callsubr
            hvcurveto
            return
          </CharString>
          <CharString index="11">
            52 43 -48 59 hhcurveto
            45 35 36 74 6 hvcurveto
            return
          </CharString>
          <CharString index="12">
            rmoveto
            66 -55 51 -78 -57 -45 -17 -18 -31 vhcurveto
            -65 4 vlineto
            16 19 41 23 61 hhcurveto
            57 21 -27 -33 hvcurveto
            -81 -217 -43 -115 vvcurveto
            -39 274 59 -203 3 vlineto
            37 54 172 54 112 vvcurveto
            return
          </CharString>
          <CharString index="13">
            -50 -40 -52 -46 -72 hhcurveto
            -78 -32 46 76 hvcurveto
            314 -91 -324 vlineto
            -107 65 -89 114 return
          </CharString>
          <CharString index="14">
            -39 -34 -58 -36 -62 hhcurveto
            -81 -25 37 43 57 57 22 94 hvcurveto
            109 hlineto
            return
          </CharString>
          <CharString index="15">
            86 rmoveto
            56 -7 142 -111 29 vhcurveto
            2 vlineto
            88 30 41 73 77 vvcurveto
            115 -82 88 -190 vhcurveto
            -278 -698 91 272 207 hlineto
            151 -1 -136 -66 hvcurveto
            -16 vlineto
            -16 3 -20 11 -18 vhcurveto
            94 4 hlineto
            -10 15 -7 18 25 vvcurveto
            -267 296 rmoveto
            -181 254 176 hlineto
            148 44 -50 -74 -85 -75 -45 -112 hvcurveto
            return
          </CharString>
          <CharString index="16">
            19 callgsubr
            -167 125 -98 142 70 54 20 29 49 hvcurveto
            -79 callsubr
            return
          </CharString>
          <CharString index="17">
            73 39 -20 -42 -37 -40 -15 -52 -53 -39 16 12 -22 hvcurveto
            -5 -62 hlineto
            -15 30 42 -13 56 hhcurveto
            107 39 55 57 59 -38 26 -36 11 hvcurveto
            2 vlineto
            return
          </CharString>
          <CharString index="18">
            56 hlineto
            -87 -17 -42 -54 -16 vhcurveto
            156 -38 -123 104 -177 hhcurveto
            -214 -133 -150 -209 -4 hvcurveto
            -209 4 133 -150 214 104 callgsubr
            -1 19 -1 18 -3 18 rrcurveto
            79 21 36 60 112 vvcurveto
            return
          </CharString>
          <CharString index="19">
            86 -4 vlineto
            -27 -40 -54 -23 -67 hhcurveto
            -116 -68 73 107 107 68 73 116 return
          </CharString>
          <CharString index="20">
            139 367 rmoveto
            -84 callgsubr
            16 -43 -53 12 -59 -52 callgsubr
            -95 callgsubr
            return
          </CharString>
          <CharString index="21">
            -106 callgsubr
            -432 222 rmoveto
            113 -133 rlineto
            62 hlineto
            -76 133 rlineto
            endchar
          </CharString>
          <CharString index="22">
            rmoveto
            96 96 -96 hlineto
            return
          </CharString>
          <CharString index="23">
            -54 callgsubr
            -92 callgsubr
            endchar
          </CharString>
          <CharString index="24">
            vstem
            321 435 rmoveto
            -42 callsubr
            86 hlineto
            29 -49 -54 20 -70 -56 callgsubr
            -167 125 -98 142 70 54 20 29 49 hvcurveto
            -88 callsubr
            hvcurveto
            return
          </CharString>
          <CharString index="25">
            141 -128 hlineto
            -17 -33 -45 -13 -48 hhcurveto
            -125 -73 87 112 127 85 71 109 74 65 -29 -36 52 hvcurveto
            3 90 hlineto
            31 -52 -69 29 -80 hhcurveto
            -153 -122 -113 -170 -165 111 -118 166 80 69 26 42 64 hvcurveto
            return
          </CharString>
          <CharString index="26">
            rmoveto
            19 vlineto
            119 -50 40 -35 13 vhcurveto
            2 vlineto
            50 23 43 41 73 vvcurveto
            93 -65 71 -151 vhcurveto
            -221 -550 87 207 149 hlineto
            106 -1 -97 -48 hvcurveto
            -11 vlineto
            -14 3 -17 13 -20 vhcurveto
            89 3 hlineto
            -15 22 -2 15 16 vvcurveto
            -212 231 rmoveto
            -130 183 126 hlineto
            105 32 -36 -53 -61 -54 -33 -79 hvcurveto
            endchar
          </CharString>
          <CharString index="27">
            29 callgsubr
            hintmask 10111100
            -60 callgsubr
            hintmask 01111100
            -44 callsubr
            hintmask 10111100
            -94 callsubr
            vhcurveto
            return
          </CharString>
          <CharString index="28">
            -76 callgsubr
            -26 29 -19 37 44 vvcurveto
            84 82 13 50 vhcurveto
            return
          </CharString>
          <CharString index="29">
            11 -64 rlineto
            80 510 -80 hlineto
            -11 -64 rlineto
            -3 hlineto
            return
          </CharString>
          <CharString index="30">
            -85 callsubr
            -56 callsubr
            return
          </CharString>
          <CharString index="31">
            529 510 rmoveto
            -98 hlineto
            -164 -403 rlineto
            -4 hlineto
            -160 403 rlineto
            -98 hlineto
            211 -518 -86 -222 rlineto
            92 hlineto
            return
          </CharString>
          <CharString index="32">
            -48 46 52 -26 70 hhcurveto
            121 121 95 170 170 -121 95 -121 hvcurveto
            -13 -445 rmoveto
            -65 -54 32 43 -39 hvcurveto
            210 vlineto
            43 39 54 32 65 hhcurveto
            95 69 -62 -118 -118 -69 -62 -95 hvcurveto
            return
          </CharString>
          <CharString index="33">
            rmoveto
            45 46 33 82 64 53 -16 -14 35 vhcurveto
            5 83 hlineto
            16 -48 -57 13 -60 hhcurveto
            -135 -72 -76 -89 hvcurveto
            -200 324 68 -106 vvcurveto
            -52 -41 -27 -83 -87 -67 29 20 -35 vhcurveto
            -4 -88 hlineto
            -24 51 68 -21 81 hhcurveto
            101 103 51 107 hvcurveto
            31 callsubr
            endchar
          </CharString>
          <CharString index="34">
            56 hlineto
            -85 -15 -33 -53 -8 vhcurveto
            146 -9 -100 97 -146 hhcurveto
            -447 vmoveto
            -77 -88 50 133 132 88 49 77 76 89 -49 -132 -133 -89 -50 -76 hvcurveto
            return
          </CharString>
          <CharString index="35">
            rmoveto
            46 -34 61 -101 -100 -34 -61 -46 -39 22 -27 27 -15 vhcurveto
            -2 vlineto
            -42 -18 -25 -31 -53 vvcurveto
            -51 39 -62 113 114 39 62 51 52 -27 31 -41 18 vhcurveto
            2 vlineto
            -81 callgsubr
            49 23 -24 -29 -23 -17 -30 -55 -54 -17 30 23 29 23 24 48 hvcurveto
            endchar
          </CharString>
          <CharString index="36">
            rmoveto
            -159 -239 rlineto
            -4 hlineto
            -159 239 rlineto
            -107 hlineto
            224 -319 rlineto
            -231 88 231 vlineto
            224 319 rlineto
            return
          </CharString>
          <CharString index="37">
            rmoveto
            -574 -3 vlineto
            -403 574 rlineto
            -112 -698 91 575 2 hlineto
            404 -575 rlineto
            112 698 hlineto
            return
          </CharString>
          <CharString index="38">
            -35 -12 -28 -23 -43 hhcurveto
            return
          </CharString>
          <CharString index="39">
            rmoveto
            -121 -69 88 113 113 69 89 121 119 69 -89 -113 -113 -69 -88 -119 hvcurveto
            endchar
          </CharString>
          <CharString index="40">
            410 708 rmoveto
            -198 -161 -161 -198 -198 161 -161 198 198 161 161 198 198 -161 161 -198 hvcurveto
            -1 -666 rmoveto
            -168 -138 138 170 168 138 138 168 170 138 -138 -168 -170 -138 -138 -170 hvcurveto
            return
          </CharString>
          <CharString index="41">
            -63 callsubr
            -10 -20 return
          </CharString>
          <CharString index="42">
            241 -10 85 548 85 -5 -20 200 96 callsubr
            hintmask 10111110
            759 703 62 callgsubr
            hintmask 11011101
            -89 callsubr
            hintmask 10111110
            -25 callsubr
            hintmask 11011110
            -98 callsubr
            vhcurveto
            return
          </CharString>
          <CharString index="43">
            -15 60 -5 -55 -88 rcurveline
            -54 callgsubr
            -99 callsubr
            return
          </CharString>
          <CharString index="44">
            85 -54 -21 435 85 return
          </CharString>
          <CharString index="45">
            47 callgsubr
            -111 -27 7 -23 12 -21 hvcurveto
            5 -24 -25 2 12 callgsubr
            return
          </CharString>
          <CharString index="46">
            -49 callsubr
            hintmask 11100110
            -96 callsubr
            endchar
          </CharString>
          <CharString index="47">
            -88 callsubr
            -42 callsubr
            return
          </CharString>
          <CharString index="48">
            -58 -24 -23 -31 -17 vhcurveto
            -65 vlineto
            36 15 76 43 105 vvcurveto
            112 vlineto
            return
          </CharString>
          <CharString index="49">
            60 21 -46 callgsubr
            return
          </CharString>
          <CharString index="50">
            -166 -94 120 154 return
          </CharString>
          <CharString index="51">
            168 -96 -85 callsubr
            return
          </CharString>
          <CharString index="52">
            207 205 rlineto
            -122 hlineto
            -221 -227 rlineto
            -3 447 return
          </CharString>
          <CharString index="53">
            260 5 callsubr
            123 -40 callsubr
            return
          </CharString>
          <CharString index="54">
            334 -54 vlineto
            -90 -47 rlineto
            -66 vlineto
            76 37 rlineto
            return
          </CharString>
          <CharString index="55">
            rmoveto
            101 65 70 103 103 -65 69 -101 -101 -66 -69 -103 -103 66 -70 101 hvcurveto
            277 vmoveto
            40 48 -28 -75 -76 -48 -30 -40 -41 -47 30 76 75 47 28 41 hvcurveto
            return
          </CharString>
          <CharString index="56">
            -72 -144 86 235 83 223 84 hstemhm
            406 90 -65 90 hintmask 11110000
            379 224 rmoveto
            1 vlineto
            56 20 61 44 100 vvcurveto
            113 -86 65 -152 -88 -70 -29 -26 -47 vhcurveto
            -83 4 vlineto
            28 43 63 26 87 hhcurveto
            106 50 -42 -61 -80 -76 -40 -130 hvcurveto
            -39 -83 51 hlineto
            hintmask 11101000
            164 55 -52 -73 -87 -97 -23 -86 -91 -66 25 22 -40 hvcurveto
            -5 -88 hlineto
            -22 48 76 -23 95 hhcurveto
            144 112 65 126 122 -87 42 -55 13 hvcurveto
            endchar
          </CharString>
          <CharString index="57">
            91 167 hlineto
            74 74 rlineto
            3 hlineto
            180 -241 rlineto
            112 hlineto
            return
          </CharString>
          <CharString index="58">
            -74 callgsubr
            hintmask 11001110
            -103 callsubr
            hhcurveto
            return
          </CharString>
          <CharString index="59">
            rmoveto
            -284 -60 284 60 hlineto
            return
          </CharString>
          <CharString index="60">
            hstemhm
            48 49 callgsubr
            hintmask 1010100110000000
            290 520 rmoveto
            -121 -121 -95 -170 -170 121 -95 121 70 52 26 48 46 hvcurveto
            3 hlineto
            hintmask 0101100110000000
            -78 callsubr
            return
          </CharString>
          <CharString index="61">
            1 0 85 222 85 221 85 return
          </CharString>
          <CharString index="62">
            -101 0 83 151 83 150 83 return
          </CharString>
          <CharString index="63">
            11 -64 rlineto
            80 510 -91 -340 hlineto
            return
          </CharString>
          <CharString index="64">
            153 0 78 539 91 hstem
            69 82 488 82 vstem
            731 78 rmoveto
            -134 1 hlineto
            61 51 63 87 152 vvcurveto
            162 -122 177 -204 -204 -122 -177 -162 -152 62 -87 62 -51 vhcurveto
            -1 -134 -78 263 75 vlineto
            -56 24 -115 72 187 vvcurveto
            136 91 123 153 153 91 -123 -136 -187 -115 -72 -56 -24 vhcurveto
            -75 263 vlineto
            endchar
          </CharString>
          <CharString index="65">
            67 54 -23 -27 40 hvcurveto
            4 return
          </CharString>
          <CharString index="66">
            rmoveto
            53 -72 32 -89 -91 vvcurveto
            -93 -32 -87 -53 -72 vhcurveto
            -3 67 vlineto
            51 71 30 88 96 vvcurveto
            96 -30 88 -51 71 vhcurveto
            -67 hlineto
            endchar
          </CharString>
          <CharString index="67">
            3 62 66 79 -32 callsubr
            return
          </CharString>
          <CharString index="68">
            120 0 85 230 67 231 85 hstem
            104 91 418 90 vstem
            22 315 rmoveto
            82 -315 246 hlineto
            239 114 181 168 169 -114 180 -239 hvcurveto
            -246 -316 -82 hlineto
            317 -297 rmoveto
            -144 230 146 67 -146 231 61 callgsubr
          </CharString>
          <CharString index="69">
            587 -29 callgsubr
            -532 -87 418 -4 hlineto
            -426 -527 rlineto
            -80 540 85 -426 3 vlineto
            426 528 rlineto
            return
          </CharString>
          <CharString index="70">
            58 -58 116 return
          </CharString>
          <CharString index="71">
            4 -258 -84 -59 223 59 hlineto
            return
          </CharString>
          <CharString index="72">
            339 rmoveto
            61 37 23 24 21 hvcurveto
            2 hlineto
            7 -40 rlineto
            65 223 hlineto
            69 -44 70 -102 -51 -43 -13 -15 -36 vhcurveto
            -66 4 vlineto
            12 28 39 14 48 hhcurveto
            56 29 -24 -61 hvcurveto
            -2 -76 vlineto
            -109 -52 -41 -66 -67 54 -40 62 hvcurveto
            53 160 rmoveto
            68 -48 hlineto
            -25 -23 -36 -22 -39 hhcurveto
            -51 -16 22 26 35 37 12 60 hvcurveto
            return
          </CharString>
          <CharString index="73">
            -14 0 77 169 59 168 77 hstem
            93 88 299 88 vstem
            290 550 rmoveto
            -197 -245 -63 -59 63 -246 -22 callgsubr
            169 105 59 -105 168 101 hlineto
            121 77 -80 -118 -117 -77 -81 -121 hvcurveto
            endchar
          </CharString>
          <CharString index="74">
            -21 510 -20 return
          </CharString>
          <CharString index="75">
            196 -301 -71 104 vvcurveto
            -84 callgsubr
            return
          </CharString>
          <CharString index="76">
            95 -310 vlineto
            -124 99 -8 47 vhcurveto
            return
          </CharString>
          <CharString index="77">
            rmoveto
            96 96 -96 -96 hlineto
            return
          </CharString>
          <CharString index="78">
            rmoveto
            -53 callsubr
            hintmask 11100000
            39 callgsubr
          </CharString>
          <CharString index="79">
            -102 callsubr
            88 return
          </CharString>
          <CharString index="80">
            -63 21 49 callsubr
            return
          </CharString>
          <CharString index="81">
            426 -42 callgsubr
            return
          </CharString>
          <CharString index="82">
            106 vlineto
            -461 -628 20 callgsubr
            hvcurveto
            return
          </CharString>
          <CharString index="83">
            rmoveto
            75 -423 -83 309 -3 vlineto
            -316 -391 rlineto
            -73 430 83 -314 3 vlineto
            endchar
          </CharString>
          <CharString index="84">
            722 -21 callgsubr
            return
          </CharString>
          <CharString index="85">
            564 -102 callgsubr
            return
          </CharString>
          <CharString index="86">
            rmoveto
            hintmask 11101100
            -69 callsubr
            hintmask 11011100
            -103 callgsubr
            endchar
          </CharString>
          <CharString index="87">
            -96 callgsubr
            43 -24 return
          </CharString>
          <CharString index="88">
            67 callsubr
            -53 -43 -46 -42 hvcurveto
            -2 15 hlineto
            return
          </CharString>
          <CharString index="89">
            21 93 callsubr
            return
          </CharString>
          <CharString index="90">
            rlineto
            2 hlineto
            return
          </CharString>
          <CharString index="91">
            hstem
            410 87 vstem
            797 467 rmoveto
            83 -451 vlineto
            -362 -550 rlineto
            104 hlineto
            90 139 rlineto
            232 -139 72 callsubr
            -87 -247 rmoveto
            -179 hlineto
            160 247 rlineto
            19 hlineto
            return
          </CharString>
          <CharString index="92">
            rmoveto
            -112 vlineto
            hintmask 11011000
            53 callgsubr
            70 hmoveto
            -112 vlineto
            hintmask 11100100
            53 callgsubr
            endchar
          </CharString>
          <CharString index="93">
            rmoveto
            -130 -428 rlineto
            -1 hlineto
            -132 428 rlineto
            -76 hlineto
            -131 -428 rlineto
            -1 hlineto
            -130 428 rlineto
            -91 hlineto
            179 -550 rlineto
            81 hlineto
            131 402 rlineto
            1 hlineto
            131 -402 rlineto
            80 hlineto
            180 550 rlineto
            endchar
          </CharString>
          <CharString index="94">
            -126 -61 -22 -60 -54 -44 19 26 -35 vhcurveto
            -4 -90 hlineto
            -24 39 48 -17 56 hhcurveto
            102 104 49 191 hvcurveto
            468 vlineto
            return
          </CharString>
          <CharString index="95">
            hstem
            83 91 vstem
            83 hmoveto
            91 510 -91 hlineto
            return
          </CharString>
          <CharString index="96">
            rmoveto
            -54 -26 -5 -35 -19 -15 4 4 -12 vhcurveto
            return
          </CharString>
          <CharString index="97">
            -10 52 callgsubr
            return
          </CharString>
          <CharString index="98">
            rmoveto
            85 -556 vlineto
            -460 -698 rlineto
            108 hlineto
            116 179 rlineto
            308 -179 484 85 -393 222 357 85 -357 221 hlineto
            -91 -351 rmoveto
            -252 3 hlineto
            227 348 rlineto
            25 hlineto
            endchar
          </CharString>
          <CharString index="99">
            -8 82 403 81 return
          </CharString>
          <CharString index="100">
            520 rmoveto
            -89 -52 -43 -46 -42 hvcurveto
            -3 299 return
          </CharString>
          <CharString index="101">
            56 hlineto
            -110 -27 -33 -98 -3 vhcurveto
            256 vlineto
            return
          </CharString>
          <CharString index="102">
            2 callsubr
            endchar
          </CharString>
          <CharString index="103">
            144 hlineto
            167 107 -108 -156 -156 -107 -108 -167 hvcurveto
            return
          </CharString>
          <CharString index="104">
            27 -8 callsubr
            return
          </CharString>
          <CharString index="105">
            84 -53 -21 437 83 return
          </CharString>
          <CharString index="106">
            55 88 378 88 return
          </CharString>
          <CharString index="107">
            108 -52 52 return
          </CharString>
          <CharString index="108">
            708 rmoveto
            -108 -70 -74 -110 -110 70 -75 108 108 70 75 110 110 -70 74 -108 hvcurveto
            -305 vmoveto
            -49 -57 34 88 87 57 33 49 48 58 -33 -87 -88 -58 -34 -48 hvcurveto
            return
          </CharString>
          <CharString index="109">
            36 32 -8 -28 -31 -52 -8 -15 -1 hvcurveto
            -45 54 18 vlineto
            -93 callgsubr
            return
          </CharString>
          <CharString index="110">
            102 callsubr
            hintmask 11011000
            15 callgsubr
            hintmask 10111000
            -11 64 rlineto
            -80 -510 91 346 hlineto
            hintmask 11011000
            56 39 73 31 78 hhcurveto
            8 87 hlineto
            return
          </CharString>
          <CharString index="111">
            362 404 rmoveto
            285 294 rlineto
            -119 hlineto
            -337 -357 rlineto
            -3 357 -91 -698 91 225 hlineto
            111 115 rlineto
            5 hlineto
            258 -340 rlineto
            111 hlineto
            return
          </CharString>
          <CharString index="112">
            -44 callgsubr
            rlineto
            return
          </CharString>
          <CharString index="113">
            -29 callgsubr
            -573 -85 241 -613 91 613 241 hlineto
            return
          </CharString>
          <CharString index="114">
            -126 -303 rlineto
            -2 hlineto
            -126 303 rlineto
            -87 -376 64 286 1 hlineto
            121 -286 rlineto
            57 hlineto
            120 286 rlineto
            1 -286 64 376 hlineto
            endchar
          </CharString>
          <CharString index="115">
            -28 callsubr
            617 rmoveto
            return
          </CharString>
          <CharString index="116">
            37 callgsubr
            284 return
          </CharString>
          <CharString index="117">
            121 -10 86 callsubr
            return
          </CharString>
          <CharString index="118">
            303 32 callgsubr
            return
          </CharString>
          <CharString index="119">
            -18 callgsubr
            82 return
          </CharString>
          <CharString index="120">
            -145 74 hlineto
            100 -64 90 -118 -117 -65 -74 -99 -36 10 -29 17 -23 vhcurveto
            return
          </CharString>
          <CharString index="121">
            129 hlineto
            161 52 93 86 85 -52 93 -161 hvcurveto
            -7 -276 rmoveto
            -122 196 122 hlineto
            106 26 -51 -47 -47 -26 -51 -106 hvcurveto
            endchar
          </CharString>
          <CharString index="122">
            rmoveto
            466 -87 -550 368 84 vlineto
            endchar
          </CharString>
          <CharString index="123">
            120 75 57 95 69 46 -36 -38 37 vhcurveto
            return
          </CharString>
          <CharString index="124">
            66 -10 84 -53 -21 211 43 256 -20 return
          </CharString>
          <CharString index="125">
            -121 -115 -21 609 86 hstem
            9 559 rmoveto
            -86 396 -4 vlineto
            -301 -605 rlineto
            102 hlineto
            299 615 rlineto
            80 vlineto
            endchar
          </CharString>
          <CharString index="126">
            76 callgsubr
            262 70 vstem
            198 return
          </CharString>
          <CharString index="127">
            -1 50 66 33 47 17 return
          </CharString>
          <CharString index="128">
            98 649 rmoveto
            -649 87 522 2 vlineto
            330 -522 rlineto
            103 649 -87 -517 -2 hlineto
            -331 517 rlineto
            677 return
          </CharString>
          <CharString index="129">
            134 30 callgsubr
          </CharString>
          <CharString index="130">
            71 32 17 50 25 22 -6 -7 20 vhcurveto
            return
          </CharString>
          <CharString index="131">
            -63 callsubr
            158 52 hstemhm
            return
          </CharString>
          <CharString index="132">
            20 callsubr
            rrcurveto
            return
          </CharString>
          <CharString index="133">
            hstemhm
            97 91 hintmask 11101100
            -94 callgsubr
            return
          </CharString>
          <CharString index="134">
            -6 -240 86 154 83 354 83 -10 -20 return
          </CharString>
          <CharString index="135">
            hstemhm
            38 91 260 91 return
          </CharString>
          <CharString index="136">
            53 -21 447 -20 hstem
            327 479 rmoveto
            -104 hlineto
            -186 -224 186 -223 rlineto
            104 hlineto
            -193 223 rlineto
            return
          </CharString>
          <CharString index="137">
            -21 432 78 108 98 -63 87 hstemhm
            117 91 -91 247 return
          </CharString>
          <CharString index="138">
            209 -324 -81 120 vvcurveto
            return
          </CharString>
          <CharString index="139">
            303 -289 -21 325 68 return
          </CharString>
          <CharString index="140">
            125 -16 hvcurveto
            -56 -90 -54 callgsubr
            return
          </CharString>
          <CharString index="141">
            hstemhm
            65 callgsubr
            90 12 0 callsubr
            return
          </CharString>
          <CharString index="142">
            59 334 -20 hstemhm
            88 144 vstemhm
            232 return
          </CharString>
          <CharString index="143">
            hstem
            -1 callsubr
            vstem
            return
          </CharString>
          <CharString index="144">
            112 112 -112 return
          </CharString>
          <CharString index="145">
            -31 -38 -49 -23 -65 hhcurveto
            -84 -67 51 75 69 43 44 36 24 hvcurveto
            5 hlineto
            219 -205 rlineto
            endchar
          </CharString>
          <CharString index="146">
            -93 callsubr
            -75 472 rmoveto
            -82 hlineto
            return
          </CharString>
          <CharString index="147">
            88 vstem
            177 hmoveto
            -88 550 88 hlineto
            return
          </CharString>
          <CharString index="148">
            472 510 rmoveto
            -11 -64 rlineto
            -3 hlineto
            return
          </CharString>
          <CharString index="149">
            -28 83 callgsubr
            return
          </CharString>
          <CharString index="150">
            rmoveto
            -235 -270 235 -88 -550 88 235 270 -235 87 550 vlineto
            endchar
          </CharString>
          <CharString index="151">
            56 callsubr
            -91 return
          </CharString>
          <CharString index="152">
            77 callgsubr
            220 70 vstem
            281 return
          </CharString>
          <CharString index="153">
            -104 -209 -21 740 -20 return
          </CharString>
          <CharString index="154">
            37 callsubr
            hlineto
            return
          </CharString>
          <CharString index="155">
            -36 -15 18 29 hvcurveto
            return
          </CharString>
          <CharString index="156">
            -21 139 79 return
          </CharString>
          <CharString index="157">
            -93 callsubr
            -37 463 rmoveto
            return
          </CharString>
          <CharString index="158">
            613 rmoveto
            85 return
          </CharString>
          <CharString index="159">
            91 274 91 return
          </CharString>
          <CharString index="160">
            -10 98 callgsubr
            165 99 callgsubr
            return
          </CharString>
          <CharString index="161">
            -2 callsubr
            -10 -20 194 46 hstemhm
            return
          </CharString>
          <CharString index="162">
            -20 -12 callsubr
            return
          </CharString>
          <CharString index="163">
            520 rmoveto
            9 callsubr
            return
          </CharString>
          <CharString index="164">
            -25 -8 84 158 76 163 85 return
          </CharString>
          <CharString index="165">
            -21 63 58 193 58 55 -20 hstem
            return
          </CharString>
          <CharString index="166">
            65 136 64 70 70 return
          </CharString>
          <CharString index="167">
            hvcurveto
            88 -5 vlineto
            -29 -44 -50 -21 -82 hhcurveto
            -108 -59 58 90 -10 hvcurveto
            388 hlineto
            return
          </CharString>
          <CharString index="168">
            184 -469 87 469 184 hlineto
            endchar
          </CharString>
          <CharString index="169">
            -44 -29 -39 -46 -70 vvcurveto
            -92 64 -75 131 66 51 21 30 39 vhcurveto
            5 hlineto
            return
          </CharString>
          <CharString index="170">
            83 325 44 256 -20 return
          </CharString>
          <CharString index="171">
            hstem
            48 callgsubr
            vstem
            return
          </CharString>
          <CharString index="172">
            -165 96 59 return
          </CharString>
          <CharString index="173">
            198 7 -21 516 -20 hstem
            return
          </CharString>
          <CharString index="174">
            356 520 rmoveto
            -89 return
          </CharString>
          <CharString index="175">
            -46 18 -54 12 -63 2 rrcurveto
            96 -45 -96 vlineto
            -136 -8 -72 -81 -94 return
          </CharString>
          <CharString index="176">
            11 -64 rlineto
            80 730 -91 -284 -3 hlineto
            48 -46 -52 26 -70 hhcurveto
            return
          </CharString>
          <CharString index="177">
            133 rlineto
            -99 hlineto
            return
          </CharString>
          <CharString index="178">
            -20 hstem
            89 87 return
          </CharString>
          <CharString index="179">
            387 83 -300 151 272 83 -272 150 hlineto
            return
          </CharString>
          <CharString index="180">
            -250 21 -21 433 87 -10 -20 return
          </CharString>
          <CharString index="181">
            hstemhm
            55 88 183 219 -78 78 return
          </CharString>
          <CharString index="182">
            -138 0 85 340 85 return
          </CharString>
          <CharString index="183">
            59 callsubr
            hstem
            return
          </CharString>
          <CharString index="184">
            hstem
            60 87 237 87 vstem
            return
          </CharString>
          <CharString index="185">
            -157 -10 84 363 83 return
          </CharString>
          <CharString index="186">
            -10 -63 callsubr
            return
          </CharString>
          <CharString index="187">
            -59 -8 85 397 84 return
          </CharString>
          <CharString index="188">
            21 -21 550 -20 hstem
            return
          </CharString>
          <CharString index="189">
            61 -10 87 544 87 return
          </CharString>
          <CharString index="190">
            54 callsubr
            52 87 return
          </CharString>
          <CharString index="191">
            883 rmoveto
            -76 -133 rlineto
            62 hlineto
            113 133 rlineto
            return
          </CharString>
          <CharString index="192">
            -22 86 -4 rrcurveto
            -95 45 95 vlineto
            126 8 81 71 96 return
          </CharString>
          <CharString index="193">
            83 625 -20 return
          </CharString>
          <CharString index="194">
            -6 -10 -66 callsubr
            211 -20 return
          </CharString>
          <CharString index="195">
            -380 -240 80 670 -20 return
          </CharString>
          <CharString index="196">
            55 88 141 96 141 88 return
          </CharString>
          <CharString index="197">
            71 callsubr
            vstem
            return
          </CharString>
          <CharString index="198">
            92 91 392 91 return
          </CharString>
          <CharString index="199">
            -21 436 84 return
          </CharString>
          <CharString index="200">
            -21 698 -20 return
          </CharString>
          <CharString index="201">
            198 209 -21 135 80 135 -20 hstem
            return
          </CharString>
          <CharString index="202">
            -20 29 callgsubr
            60 0 callsubr
            return
          </CharString>
          <CharString index="203">
            78 callgsubr
            2 0 callsubr
            return
          </CharString>
          <CharString index="204">
            -20 34 callsubr
            return
          </CharString>
          <CharString index="205">
            8 -18 callsubr
            return
          </CharString>
          <CharString index="206">
            hstemhm
            65 callgsubr
            91 return
          </CharString>
          <CharString index="207">
            -98 0 83 384 83 return
          </CharString>
          <CharString index="208">
            1 0 85 526 87 return
          </CharString>
          <CharString index="209">
            -20 hstemhm
            79 91 return
          </CharString>
          <CharString index="210">
            hlineto
            -29 -182 rlineto
            71 hlineto
            29 182 rlineto
            return
          </CharString>
          <CharString index="211">
            21 -21 256 45 96 45 256 -20 hstem
            return
          </CharString>
          <CharString index="212">
            303 -289 77 callgsubr
            return
          </CharString>
          <CharString index="213">
            84 -53 -33 callsubr
            hstemhm
            return
          </CharString>
          <CharString index="214">
            28 callgsubr
            hstem
            return
          </CharString>
          <CharString index="215">
            -10 102 callsubr
            return
          </CharString>
          <CharString index="216">
            213 -69 69 -21 return
          </CharString>
          <CharString index="217">
            64 269 66 return
          </CharString>
          <CharString index="218">
            -37 -120 rlineto
            -2 hlineto
            -38 120 rlineto
            return
          </CharString>
          <CharString index="219">
            -2 callsubr
            164 46 hstemhm
            return
          </CharString>
          <CharString index="220">
            267 -10 85 151 73 135 86 return
          </CharString>
          <CharString index="221">
            303 -316 59 callsubr
            return
          </CharString>
          <CharString index="222">
            -81 -94 -63 25 -39 35 -42 hvcurveto
            -3 vlineto
            return
          </CharString>
        <CharString name=".notdef">
          -123 0 50 598 50 hstem
          20 50 374 50 vstem
          20 -29 callgsubr
          -698 474 698 -474 vlineto
          207 -349 rmoveto
          -157 -253 rlineto
          506 vlineto
          157 -253 rlineto
          -127 299 rmoveto
          313 hlineto
          -156 -251 -157 251 rlineto
          157 -346 rmoveto
          156 -252 rlineto
          -313 hlineto
          157 252 rlineto
          29 47 rmoveto
          158 253 rlineto
          -506 vlineto
          -158 253 rlineto
          endchar
        </CharString>
        <CharString name="A">
          -58 callsubr
          hstem
          593 hmoveto
          -105 callsubr
          endchar
        </CharString>
        <CharString name="AE">
          403 0 85 94 83 45 85 221 85 hstem
          499 91 vstem
          983 613 -9 callsubr
        </CharString>
        <CharString name="AEacute">
          403 0 85 94 83 45 85 221 85 185 -20 hstem
          499 91 vstem
          549 84 callsubr
          335 -270 -9 callsubr
        </CharString>
        <CharString name="Aacute">
          -58 callsubr
          205 -20 hstem
          375 84 callsubr
          119 -883 rmoveto
          -105 callsubr
          endchar
        </CharString>
        <CharString name="Abreve">
          -58 callsubr
          70 -1 callgsubr
          hintmask 11101000
          432 864 rmoveto
          hintmask 11110000
          -69 callsubr
          hintmask 11101000
          -103 callgsubr
          97 -864 rmoveto
          -105 callsubr
          endchar
        </CharString>
        <CharString name="Abreveacute">
          -58 callsubr
          57 -37 callsubr
          -116 250 hstemhm
          hintmask 11101000
          432 851 rmoveto
          hintmask 11110000
          -69 callsubr
          hintmask 11101000
          -103 callgsubr
          hintmask 11100100
          -115 134 rmoveto
          -76 -133 rlineto
          62 hlineto
          113 133 rlineto
          113 -985 rmoveto
          -105 callsubr
          endchar
        </CharString>
        <CharString name="Abrevedotbelow">
          58 -156 96 81 -46 callgsubr
          65 -1 callgsubr
          300 96 hintmask 11110110
          431 859 rmoveto
          hintmask 11111010
          -69 callsubr
          hintmask 11110110
          -103 callgsubr
          -195 -1015 -85 callsubr
          292 60 rmoveto
          -105 callsubr
          endchar
        </CharString>
        <CharString name="Abrevegrave">
          -58 callsubr
          57 -37 callsubr
          -116 250 hstemhm
          hintmask 11101000
          432 851 rmoveto
          hintmask 11110000
          -69 callsubr
          hintmask 11101000
          -103 callgsubr
          hintmask 11100100
          -278 134 rmoveto
          113 -133 rlineto
          62 hlineto
          -76 133 rlineto
          276 -985 rmoveto
          -105 callsubr
          endchar
        </CharString>
        <CharString name="Abrevehookabove">
          -58 callsubr
          57 -37 callsubr
          164 -20 hstemhm
          383 62 hintmask 11101110
          330 1015 -107 callgsubr
          102 -164 rmoveto
          hintmask 11110110
          -69 callsubr
          hintmask 11101110
          -103 callgsubr
          97 -851 rmoveto
          -105 callsubr
          endchar
        </CharString>
        <CharString name="Abrevetilde">
          -58 callsubr
          55 -37 callsubr
          72 68 -47 -21 hstemhm
          hintmask 11101100
          432 849 rmoveto
          hintmask 11110100
          -69 callsubr
          hintmask 11101010
          -103 callgsubr
          -27 134 -74 callgsubr
          hintmask 11101100
          -37 callgsubr
          79 -983 rmoveto
          -105 callsubr
          endchar
        </CharString>
        <CharString name="Acircumflex">
          -58 callsubr
          195 -20 hstem
          390 873 -106 callgsubr
          90 -750 rmoveto
          -105 callsubr
          endchar
        </CharString>
        <CharString name="Acircumflexacute">
          -58 callsubr
          278 -20 hstem
          390 857 -106 callgsubr
          25 222 rmoveto
          -76 -133 rlineto
          62 hlineto
          113 133 rlineto
          -34 -956 rmoveto
          -105 callsubr
          endchar
        </CharString>
        <CharString name="Acircumflexdotbelow">
          58 -156 96 81 -46 callgsubr
          193 -20 hstem
          300 96 vstem
          389 871 -106 callgsubr
          -202 -904 -85 callsubr
          292 60 rmoveto
          -105 callsubr
          endchar
        </CharString>
        <CharString name="Acircumflexgrave">
          -58 callsubr
          278 -20 hstem
          390 857 -106 callgsubr
          -432 222 rmoveto
          113 -133 rlineto
          62 hlineto
          -76 133 rlineto
          423 -956 rmoveto
          -105 callsubr
          endchar
        </CharString>
        <CharString name="Acircumflexhookabove">
          -58 callsubr
          56 224 hstem
          557 62 vstem
          390 857 -106 callgsubr
          1 224 -107 callgsubr
          89 -958 rmoveto
          -105 callsubr
          endchar
        </CharString>
        <CharString name="Acircumflextilde">
          -58 callsubr
          243 68 -47 -21 hstemhm
          hintmask 11101000
          390 852 -106 callgsubr
          -34 254 -74 callgsubr
          hintmask 11110000
          -37 callgsubr
          79 -983 rmoveto
          -105 callsubr
          endchar
        </CharString>
        <CharString name="Adieresis">
          -58 callsubr
          72 96 hstem
          217 96 72 96 vstem
          593 hmoveto
          -105 callsubr
          2 488 -77 callsubr
          endchar
        </CharString>
        <CharString name="Adotbelow">
          58 -156 96 81 -46 callgsubr
          hstem
          300 96 vstem
          300 -156 -85 callsubr
          292 60 rmoveto
          -105 callsubr
          endchar
        </CharString>
        <CharString name="Agrave">
          -58 callsubr
          205 -20 hstem
          223 883 rmoveto
          113 -133 rlineto
          62 hlineto
          -76 133 rlineto
          271 -883 rmoveto
          -105 callsubr
          endchar
        </CharString>
        <CharString name="Ahookabove">
          -58 callsubr
          244 -20 hstem
          386 62 vstem
          333 922 -107 callgsubr
          260 -922 rmoveto
          -105 callsubr
          endchar
        </CharString>
        <CharString name="Amacron">
          -58 callsubr
          90 60 hstem
          491 828 -48 callsubr
          102 -828 rmoveto
          -105 callsubr
          endchar
        </CharString>
        <CharString name="Aogonek">
          60 -203 56 168 -46 callgsubr
          hstem
          507 73 vstem
          593 hmoveto
          21 hlineto
          -54 -22 -53 -33 -64 vvcurveto
          -53 45 -31 48 40 29 12 15 22 vhcurveto
          47 vlineto
          -8 -14 -19 -10 -27 hhcurveto
          48 callsubr
          20 callsubr
          -296 698 rcurveline
          -95 hlineto
          -296 -698 rlineto
          99 hlineto
          75 179 rlineto
          339 hlineto
          -303 88 rmoveto
          133 319 -17 callsubr
          132 -319 rlineto
          -5 -267 vlineto
          endchar
        </CharString>
        <CharString name="Aring">
          -58 callsubr
          52 45 98 45 hstem
          255 45 98 45 vstem
          349 918 -85 callgsubr
          244 -775 rmoveto
          -105 callsubr
          endchar
        </CharString>
        <CharString name="Atilde">
          -58 callsubr
          115 68 -47 -21 hstemhm
          hintmask 11101000
          469 855 -74 callgsubr
          hintmask 11110000
          -37 callgsubr
          79 -855 rmoveto
          -105 callsubr
          endchar
        </CharString>
        <CharString name="B">
          56 0 85 229 82 217 85 hstemhm
          97 91 327 87 -49 49 -49 88 hintmask 11110010
          641 196 rmoveto
          92 -63 50 -72 23 vhcurveto
          3 vlineto
          hintmask 11110100
          51 23 45 47 83 vvcurveto
          108 -78 73 -146 vhcurveto
          -281 -698 287 hlineto
          hintmask 11110010
          185 72 79 117 hvcurveto
          -453 -111 rmoveto
          229 188 vlineto
          115 62 -35 -79 -68 -41 -47 -137 hvcurveto
          -187 311 rmoveto
          217 183 vlineto
          hintmask 11111000
          91 53 -41 -62 -65 -35 -49 -126 hvcurveto
          endchar
        </CharString>
        <CharString name="C">
          82 callsubr
          hstem
          56 91 vstem
          415 621 -90 callgsubr
          endchar
        </CharString>
        <CharString name="Cacute">
          82 callsubr
          175 -20 hstem
          56 91 vstem
          415 621 -90 callgsubr
          1 262 rmoveto
          -76 -133 rlineto
          62 hlineto
          113 133 rlineto
          endchar
        </CharString>
        <CharString name="Ccaron">
          82 callsubr
          165 -20 hstem
          56 91 vstem
          415 621 -90 callgsubr
          137 252 rmoveto
          -79 hlineto
          -75 -73 -75 73 rlineto
          -79 hlineto
          113 -123 rlineto
          82 hlineto
          endchar
        </CharString>
        <CharString name="Ccedilla">
          61 0 callgsubr
          49 87 544 87 hstem
          56 91 278 67 vstem
          415 -44 callgsubr
          89 1 81 27 62 37 rlinecurve
          90 -5 vlineto
          -41 -62 -72 -27 -89 hhcurveto
          -177 -91 118 154 154 91 118 177 89 72 -27 -41 62 hvcurveto
          5 90 hlineto
          38 -63 -83 27 -91 hhcurveto
          -199 -151 -136 -223 -209 133 -133 180 -15 hvcurveto
          -55 -89 -84 callsubr
        </CharString>
        <CharString name="Ccircumflex">
          82 callsubr
          165 -20 hstem
          56 91 vstem
          415 621 -90 callgsubr
          23 252 -106 callgsubr
          endchar
        </CharString>
        <CharString name="Cdotaccent">
          82 callsubr
          42 96 hstem
          56 91 200 96 vstem
          415 621 -90 callgsubr
          -68 129 -30 callsubr
          endchar
        </CharString>
        <CharString name="D">
          113 0 85 528 85 hstem
          97 91 418 90 vstem
          343 -29 callgsubr
          -246 -698 246 hlineto
          239 114 181 168 169 -114 180 -239 hvcurveto
          -11 -613 rmoveto
          -144 528 61 callgsubr
        </CharString>
        <CharString name="Dcaron">
          113 0 85 528 85 175 -20 hstem
          97 91 418 90 vstem
          343 -29 callgsubr
          -246 -698 246 hlineto
          239 114 181 168 169 -114 180 -239 hvcurveto
          -11 -613 rmoveto
          -144 528 -4 callsubr
          195 788 rmoveto
          -79 hlineto
          -75 -73 -75 73 rlineto
          -79 hlineto
          113 -123 rlineto
          82 hlineto
          endchar
        </CharString>
        <CharString name="Dcroat">
          -39 callsubr
        </CharString>
        <CharString name="Delta">
          84 0 71 627 -20 hstem
          410 -29 callgsubr
          -99 hlineto
          -278 -698 rlineto
          655 hlineto
          -541 76 rmoveto
          213 533 -17 callsubr
          212 -533 rlineto
          -5 -427 vlineto
          endchar
        </CharString>
        <CharString name="E">
          -46 callsubr
          hstem
          97 91 vstem
          -94 callgsubr
          endchar
        </CharString>
        <CharString name="Eacute">
          -46 callsubr
          185 -20 hstem
          97 91 vstem
          -94 callgsubr
          177 270 rmoveto
          -76 -133 rlineto
          62 hlineto
          113 133 rlineto
          endchar
        </CharString>
        <CharString name="Ebreve">
          -46 callsubr
          50 58 -58 116 26 callsubr
          240 251 21 callgsubr
          endchar
        </CharString>
        <CharString name="Ecaron">
          -46 callsubr
          175 -20 hstem
          97 91 vstem
          -94 callgsubr
          305 260 rmoveto
          -79 hlineto
          -75 -73 -75 73 rlineto
          -79 hlineto
          113 -123 rlineto
          82 hlineto
          endchar
        </CharString>
        <CharString name="Ecircumflex">
          -46 callsubr
          175 -20 hstem
          97 91 vstem
          -94 callgsubr
          202 260 -106 callgsubr
          endchar
        </CharString>
        <CharString name="Ecircumflexacute">
          3 callgsubr
          193 244 -106 callgsubr
          25 222 rmoveto
          -76 -133 rlineto
          62 hlineto
          113 133 rlineto
          endchar
        </CharString>
        <CharString name="Ecircumflexdotbelow">
          1 -156 96 60 85 222 85 221 85 173 -20 hstem
          97 91 116 96 vstem
          -94 callgsubr
          205 258 -106 callgsubr
          -202 -904 -85 callsubr
          endchar
        </CharString>
        <CharString name="Ecircumflexgrave">
          3 callgsubr
          202 244 -86 callsubr
        </CharString>
        <CharString name="Ecircumflexhookabove">
          -46 callsubr
          -85 244 -123 224 hstemhm
          97 91 360 62 hintmask 11101110
          -94 callgsubr
          hintmask 11010110
          193 244 rmoveto
          -82 hlineto
          hintmask 11101110
          -113 -123 rlineto
          79 hlineto
          75 73 75 -73 rlineto
          79 hlineto
          hintmask 11010110
          hintmask 11101110
          1 224 -107 callgsubr
          endchar
        </CharString>
        <CharString name="Ecircumflextilde">
          -46 callsubr
          -85 239 -123 213 -69 -30 callgsubr
          97 91 hintmask 1110100010000000
          -94 callgsubr
          hintmask 1101010010000000
          202 239 rmoveto
          -82 hlineto
          hintmask 1110100010000000
          -113 -123 rlineto
          79 hlineto
          75 73 75 -73 rlineto
          79 hlineto
          hintmask 1101010010000000
          -34 254 rmoveto
          hintmask 1110001010000000
          -25 -5 -11 -16 -26 hhcurveto
          hintmask 1110000110000000
          -103 callsubr
          hhcurveto
          hintmask 1110010010000000
          -96 callsubr
          endchar
        </CharString>
        <CharString name="Edieresis">
          -46 callsubr
          52 96 hstem
          97 91 18 96 72 96 vstem
          -94 callgsubr
          18 137 -77 callsubr
          endchar
        </CharString>
        <CharString name="Edotaccent">
          -46 callsubr
          52 96 hstem
          97 91 111 96 vstem
          -94 callgsubr
          111 137 -30 callsubr
          endchar
        </CharString>
        <CharString name="Edotbelow">
          1 -156 96 60 85 222 85 221 85 hstem
          97 91 107 96 vstem
          -94 callgsubr
          107 -769 -85 callsubr
          endchar
        </CharString>
        <CharString name="Egrave">
          -46 callsubr
          185 -20 hstem
          97 91 vstem
          -94 callgsubr
          30 270 rmoveto
          113 -133 rlineto
          62 hlineto
          -76 133 rlineto
          endchar
        </CharString>
        <CharString name="Ehookabove">
          -46 callsubr
          224 -20 hstem
          97 91 193 62 vstem
          -94 callgsubr
          140 309 -107 callgsubr
          endchar
        </CharString>
        <CharString name="Emacron">
          -46 callsubr
          70 60 hstem
          97 91 vstem
          -94 callgsubr
          301 215 -48 callsubr
          endchar
        </CharString>
        <CharString name="Eng">
          166 -240 80 181 93 callsubr
          hstemhm
          97 91 312 206 -91 91 hintmask 11110100
          615 -101 -11 callsubr
          hintmask 11111000
          -31 callgsubr
          801 vlineto
          hintmask 11110100
          -91 -546 -3 hlineto
          -403 546 rlineto
          -112 -698 91 575 2 hlineto
          425 -575 rlineto
          endchar
        </CharString>
        <CharString name="Eogonek">
          1 -203 56 147 85 222 85 221 85 hstemhm
          97 91 208 73 -73 185 hintmask 11111100
          469 -100 rmoveto
          hintmask 11111010
          25 callsubr
          85 -393 222 357 85 -357 221 393 85 -484 -698 406 18 callgsubr
        </CharString>
        <CharString name="Eth">
          -39 callsubr
        </CharString>
        <CharString name="Etilde">
          -46 callsubr
          47 -30 callgsubr
          97 91 hintmask 11101010
          -94 callgsubr
          281 242 4 callgsubr
        </CharString>
        <CharString name="Euro">
          45 -10 86 153 73 94 72 154 86 hstem
          129 91 vstem
          610 107 rmoveto
          -17 -35 -47 -14 -60 hhcurveto
          -98 -87 59 94 -39 hvcurveto
          260 hlineto
          21 73 rlineto
          -302 hlineto
          -2 15 -1 16 16 vvcurveto
          16 1 16 2 15 vhcurveto
          330 hlineto
          21 72 rlineto
          -330 hlineto
          95 39 87 59 98 hhcurveto
          60 47 -14 -18 35 hvcurveto
          23 76 rlineto
          27 -48 -55 15 -62 hhcurveto
          -159 -116 -101 -139 -44 hvcurveto
          -102 -72 86 hlineto
          -2 -16 -2 -15 -16 vvcurveto
          -16 2 -16 2 -15 vhcurveto
          -86 -73 102 hlineto
          -138 44 116 -101 159 hhcurveto
          62 55 15 27 48 hvcurveto
          endchar
        </CharString>
        <CharString name="F">
          -27 21 -21 307 85 221 85 hstem
          97 91 vstem
          97 -29 callgsubr
          -698 91 307 346 85 -346 221 381 85 vlineto
          endchar
        </CharString>
        <CharString name="G">
          57 callgsubr
          hstem
          55 91 447 80 vstem
          17 callgsubr
          -78 callgsubr
          316 vlineto
          endchar
        </CharString>
        <CharString name="Gbreve">
          57 callgsubr
          40 -1 callgsubr
          55 91 447 80 hintmask 11101110
          17 callgsubr
          -78 callgsubr
          316 vlineto
          -194 481 rmoveto
          hintmask 11110110
          -69 callsubr
          hintmask 11101110
          -103 callgsubr
          endchar
        </CharString>
        <CharString name="Gcircumflex">
          57 callgsubr
          165 -20 hstem
          55 91 447 80 vstem
          17 callgsubr
          -78 callgsubr
          316 vlineto
          -233 490 -106 callgsubr
          endchar
        </CharString>
        <CharString name="Gcommaaccent">
          107 -17 callgsubr
          43 0 86 0 225 0 82 0 237 0 88 hstemhm
          55 91 200 95 -48 48 152 80 hintmask 1100101110100000
          17 callgsubr
          hintmask 1010101110100000
          -78 callgsubr
          hintmask 1100101110100000
          316 vlineto
          -327 -436 rmoveto
          -94 vlineto
          hintmask 1101010101100000
          47 hlineto
          hintmask 1101010110100000
          -100 callgsubr
          endchar
        </CharString>
        <CharString name="Gdotaccent">
          57 callgsubr
          42 96 hstem
          55 91 197 96 154 80 vstem
          17 callgsubr
          -78 callgsubr
          316 vlineto
          -330 367 -30 callsubr
          endchar
        </CharString>
        <CharString name="H">
          118 21 -21 306 85 307 -20 hstem
          97 91 379 91 vstem
          567 -29 callgsubr
          -307 -379 307 -91 -698 91 306 379 -306 91 698 vlineto
          endchar
        </CharString>
        <CharString name="Hbar">
          126 21 -21 306 85 118 67 122 -20 hstem
          101 91 379 91 vstem
          736 576 rmoveto
          -74 122 -91 -122 -379 122 -91 -122 -74 -67 74 -509 91 306 379 -306 91 509 74 hlineto
          -165 -118 rmoveto
          -379 118 379 hlineto
          endchar
        </CharString>
        <CharString name="Hcircumflex">
          118 21 -21 306 85 307 -20 195 -20 hstem
          97 91 379 91 vstem
          567 -29 callgsubr
          -307 -379 307 -91 -698 91 306 379 -306 91 698 vlineto
          -245 175 -106 callgsubr
          endchar
        </CharString>
        <CharString name="I">
          -352 21 -21 698 -20 -19 callgsubr
          endchar
        </CharString>
        <CharString name="IJ">
          103 -10 86 -55 93 callsubr
          hstemhm
          97 91 368 91 hintmask 01111000
          188 -29 callgsubr
          -91 -698 91 hlineto
          368 -29 callgsubr
          -474 vlineto
          hintmask 10111000
          -13 callsubr
          endchar
        </CharString>
        <CharString name="Iacute">
          -352 -18 callsubr
          205 -20 -19 callgsubr
          -24 84 callsubr
          endchar
        </CharString>
        <CharString name="Ibreve">
          -352 -18 callsubr
          70 -1 callgsubr
          97 91 hintmask 11011000
          188 -29 callgsubr
          -91 -698 91 hlineto
          37 864 rmoveto
          hintmask 11101000
          -69 callsubr
          hintmask 11011000
          -103 callgsubr
          endchar
        </CharString>
        <CharString name="Icircumflex">
          -352 -18 callsubr
          195 -20 -19 callgsubr
          -5 873 -106 callgsubr
          endchar
        </CharString>
        <CharString name="Idieresis">
          -352 -18 callsubr
          72 96 hstemhm
          10 96 -9 91 -10 96 hintmask 11101000
          188 -29 callgsubr
          -91 -698 91 hlineto
          hintmask 11110100
          -178 750 -77 callsubr
          endchar
        </CharString>
        <CharString name="Idotaccent">
          -352 -18 callsubr
          72 96 -19 callgsubr
          -94 750 -30 callsubr
          endchar
        </CharString>
        <CharString name="Idotbelow">
          -352 -156 96 81 93 callsubr
          -19 callgsubr
          -94 -156 -85 callsubr
          endchar
        </CharString>
        <CharString name="Igrave">
          -352 -18 callsubr
          205 -20 -19 callgsubr
          -166 883 rmoveto
          113 -133 rlineto
          62 hlineto
          -76 133 rlineto
          endchar
        </CharString>
        <CharString name="Ihookabove">
          -352 -18 callsubr
          244 -20 hstemhm
          97 91 -12 62 hintmask 11110000
          188 -29 callgsubr
          -91 -698 91 hlineto
          -65 922 rmoveto
          -24 -17 -3 0 hvcurveto
          -46 vlineto
          1 9 8 0 9 hhcurveto
          hintmask 11101000
          -5 callsubr
        </CharString>
        <CharString name="Imacron">
          -352 -18 callsubr
          90 60 -19 callgsubr
          96 828 -48 callsubr
          endchar
        </CharString>
        <CharString name="Iogonek">
          -352 82 callgsubr
          698 -20 hstem
          3 73 21 91 vstem
          76 -100 rmoveto
          25 callsubr
          698 -91 -698 13 vlineto
          -54 -22 -53 -33 -64 vvcurveto
          -53 45 -31 48 40 29 12 15 22 vhcurveto
          47 vlineto
          -8 -14 -19 -10 -27 hhcurveto
          48 callsubr
          endchar
        </CharString>
        <CharString name="Itilde">
          -352 -18 callsubr
          67 -30 callgsubr
          97 91 hintmask 11010100
          188 -29 callgsubr
          -91 -698 91 hlineto
          73 855 -74 callgsubr
          hintmask 11001100
          -103 callsubr
          hhcurveto
          hintmask 11100100
          -96 callsubr
          endchar
        </CharString>
        <CharString name="J">
          -171 -10 86 622 -20 hstem
          282 91 vstem
          282 -29 callgsubr
          -474 vlineto
          -13 callsubr
          endchar
        </CharString>
        <CharString name="Jcircumflex">
          -171 -10 86 622 -20 211 -20 hstem
          282 91 vstem
          282 -29 callgsubr
          -474 vlineto
          -13 callsubr
          -5 191 -106 callgsubr
          endchar
        </CharString>
        <CharString name="K">
          33 100 callgsubr
          97 91 vstem
          4 callsubr
          endchar
        </CharString>
        <CharString name="Kcommaaccent">
          31 59 callgsubr
          698 -20 hstemhm
          97 91 124 95 -48 48 hintmask 11111000
          4 callsubr
          -361 86 callgsubr
          hintmask 11110100
          47 hlineto
          hintmask 11111000
          -100 callgsubr
          endchar
        </CharString>
        <CharString name="L">
          -61 0 91 607 -20 hstem
          97 91 vstem
          -3 callgsubr
          endchar
        </CharString>
        <CharString name="Lacute">
          -61 0 91 607 -20 205 -20 hstem
          97 91 vstem
          -3 callgsubr
          -376 84 callsubr
          endchar
        </CharString>
        <CharString name="Lcaron">
          -61 0 91 607 -20 hstemhm
          97 91 120 95 -48 48 hintmask 11110000
          -3 callgsubr
          -248 698 106 callgsubr
          hintmask 11110000
          -100 callgsubr
          endchar
        </CharString>
        <CharString name="Lcommaaccent">
          -62 -17 callgsubr
          53 0 91 607 -20 hstemhm
          97 91 91 95 -48 48 hintmask 10111100
          -3 callgsubr
          hintmask 11011100
          -277 86 callgsubr
          hintmask 11011010
          47 hlineto
          hintmask 11011100
          -100 callgsubr
          endchar
        </CharString>
        <CharString name="Ldot">
          -61 0 91 225 96 286 -20 hstem
          97 91 120 96 vstem
          -3 callgsubr
          -248 316 -30 callsubr
          endchar
        </CharString>
        <CharString name="Lslash">
          -45 0 91 607 -20 hstemhm
          16 188 -91 91 hintmask 11100000
          204 91 rmoveto
          218 vlineto
          186 106 rlineto
          77 vlineto
          -186 -106 rlineto
          312 vlineto
          hintmask 11010000
          -91 -364 hlineto
          hintmask 11100000
          -97 -55 rlineto
          -77 vlineto
          97 55 rlineto
          -257 448 91 vlineto
          endchar
        </CharString>
        <CharString name="M">
          329 100 callgsubr
          97 91 590 91 vstem
          727 -29 callgsubr
          -243 -597 rlineto
          -2 hlineto
          -243 597 rlineto
          -142 -698 91 602 1 hlineto
          247 -602 rlineto
          94 hlineto
          246 602 rlineto
          2 -602 91 698 hlineto
          endchar
        </CharString>
        <CharString name="N">
          166 100 callgsubr
          97 91 427 91 vstem
          615 698 22 callgsubr
        </CharString>
        <CharString name="Nacute">
          166 -18 callsubr
          205 -20 hstem
          97 91 427 91 vstem
          615 698 -70 callsubr
          -259 185 rmoveto
          -76 -133 rlineto
          62 hlineto
          113 133 rlineto
          endchar
        </CharString>
        <CharString name="Ncaron">
          166 -18 callsubr
          195 -20 hstem
          97 91 427 91 vstem
          615 698 -70 callsubr
          -146 175 rmoveto
          -79 hlineto
          -75 -73 -75 73 rlineto
          -79 hlineto
          113 -123 rlineto
          82 hlineto
          endchar
        </CharString>
        <CharString name="Ncommaaccent">
          166 59 callgsubr
          698 -20 hstemhm
          97 91 152 95 -48 48 180 91 hintmask 11111010
          615 698 -70 callsubr
          -366 -751 rmoveto
          -94 vlineto
          hintmask 11110110
          47 hlineto
          hintmask 11111010
          -100 callgsubr
          endchar
        </CharString>
        <CharString name="Ntilde">
          166 -18 callsubr
          67 -30 callgsubr
          97 91 427 91 hintmask 11010110
          615 698 -70 callsubr
          -181 157 -61 callsubr
        </CharString>
        <CharString name="O">
          -24 callgsubr
          hstem
          38 callgsubr
          vstem
          -107 callsubr
          endchar
        </CharString>
        <CharString name="OE">
          473 -10 95 -64 -21 306 86 221 85 10 -20 hstemhm
          55 91 423 91 hintmask 10110110
          1053 51 callsubr
          -484 -35 vlineto
          hintmask 10101110
          27 -43 -54 18 -66 hhcurveto
          -214 -133 -150 -209 -4 hvcurveto
          -209 4 133 -150 214 hhcurveto
          66 54 18 27 43 hvcurveto
          hintmask 01110110
          -35 484 vlineto
          hintmask 10110110
          85 -393 221 357 86 -357 221 vlineto
          -91 -479 rmoveto
          -44 -49 -51 -15 -63 hhcurveto
          -57 callsubr
          154 94 120 166 63 51 -15 -44 49 hvcurveto
          endchar
        </CharString>
        <CharString name="Oacute">
          -24 callgsubr
          175 -20 hstem
          38 callgsubr
          vstem
          -107 callsubr
          19 808 rmoveto
          -76 -133 rlineto
          62 hlineto
          113 133 rlineto
          endchar
        </CharString>
        <CharString name="Obreve">
          -24 callgsubr
          40 58 -58 116 -2 callgsubr
          hintmask 11011100
          -107 callsubr
          83 789 -21 callsubr
        </CharString>
        <CharString name="Ocircumflex">
          -24 callgsubr
          -85 250 -2 callgsubr
          hintmask 11011000
          -107 callsubr
          hintmask 10111000
          41 798 -106 callgsubr
          endchar
        </CharString>
        <CharString name="Ocircumflexacute">
          -24 callgsubr
          -85 234 99 78 callgsubr
          hintmask 11011100
          -107 callsubr
          hintmask 10111100
          41 782 -106 callgsubr
          25 222 rmoveto
          -76 -133 rlineto
          62 hlineto
          113 133 rlineto
          endchar
        </CharString>
        <CharString name="Ocircumflexdotbelow">
          174 -156 96 50 85 548 85 -85 248 hstemhm
          55 91 212 96 212 91 cntrmask 00001110
          hintmask 11101110
          -107 callsubr
          hintmask 11011110
          41 796 -106 callgsubr
          -202 -904 -85 callsubr
          endchar
        </CharString>
        <CharString name="Ocircumflexgrave">
          -24 callgsubr
          -85 234 99 78 callgsubr
          hintmask 11011100
          -107 callsubr
          hintmask 10111100
          41 782 -86 callsubr
        </CharString>
        <CharString name="Ocircumflexhookabove">
          -24 callgsubr
          -85 234 -123 224 hstemhm
          55 91 468 62 -10 91 hintmask 11011010
          -107 callsubr
          hintmask 10101100
          41 782 rmoveto
          -82 hlineto
          hintmask 11011100
          -113 -123 rlineto
          79 hlineto
          75 73 75 -73 rlineto
          79 hlineto
          hintmask 10101100
          hintmask 11011100
          1 224 -107 callgsubr
          endchar
        </CharString>
        <CharString name="Ocircumflextilde">
          -24 callgsubr
          -85 229 -123 213 -69 69 -21 21 -21 68 -2 callgsubr
          hintmask 1101000110000000
          -107 callsubr
          hintmask 1010100110000000
          41 777 rmoveto
          -82 hlineto
          hintmask 1101000110000000
          -113 -123 rlineto
          79 hlineto
          75 73 75 -73 rlineto
          79 hlineto
          hintmask 1010100110000000
          -34 254 rmoveto
          hintmask 1100010110000000
          -25 -5 -11 -16 -26 hhcurveto
          hintmask 1100001110000000
          -103 callsubr
          hhcurveto
          hintmask 1100100110000000
          -96 callsubr
          endchar
        </CharString>
        <CharString name="Odieresis">
          -24 callgsubr
          42 96 hstem
          55 91 128 96 72 96 128 91 vstem
          -107 callsubr
          -132 675 -77 callsubr
          endchar
        </CharString>
        <CharString name="Odotbelow">
          174 65 callsubr
          85 548 85 hstem
          55 91 212 96 212 91 cntrmask 00011100
          -107 callsubr
          -48 -240 -85 callsubr
          endchar
        </CharString>
        <CharString name="Ograve">
          -24 callgsubr
          175 -20 hstem
          38 callgsubr
          vstem
          -107 callsubr
          -118 808 rmoveto
          113 -133 rlineto
          62 hlineto
          -76 133 rlineto
          endchar
        </CharString>
        <CharString name="Ohookabove">
          -24 callgsubr
          214 -20 hstem
          55 91 289 62 169 91 vstem
          -107 callsubr
          -24 847 -107 callgsubr
          endchar
        </CharString>
        <CharString name="Ohorn">
          241 -10 85 548 85 -5 96 callsubr
          hintmask 10111100
          759 703 62 callgsubr
          hintmask 11011010
          -89 callsubr
          hintmask 10111100
          -25 callsubr
          hintmask 11011100
          -98 callsubr
          vhcurveto
          endchar
        </CharString>
        <CharString name="Ohornacute">
          -65 callsubr
          19 808 rmoveto
          -76 -133 rlineto
          62 hlineto
          113 133 rlineto
          endchar
        </CharString>
        <CharString name="Ohorndotbelow">
          241 65 callsubr
          85 548 85 -5 -20 hstemhm
          55 91 212 96 212 91 2 0 callsubr
          hintmask 1101111100000000
          759 703 62 callgsubr
          hintmask 1110111010000000
          -89 callsubr
          hintmask 1101111100000000
          -25 callsubr
          hintmask 1110111100000000
          -98 callsubr
          vhcurveto
          -48 -240 -85 callsubr
          endchar
        </CharString>
        <CharString name="Ohorngrave">
          -65 callsubr
          -118 808 rmoveto
          113 -133 rlineto
          62 hlineto
          -76 133 rlineto
          endchar
        </CharString>
        <CharString name="Ohornhookabove">
          241 -10 85 548 85 -5 -20 239 -20 hstemhm
          55 91 289 62 169 91 2 0 callsubr
          hintmask 1011111100000000
          759 703 62 callgsubr
          hintmask 1101111010000000
          -89 callsubr
          hintmask 1011111100000000
          -25 callsubr
          hintmask 1101111100000000
          -98 callsubr
          vhcurveto
          -24 847 -107 callgsubr
          endchar
        </CharString>
        <CharString name="Ohorntilde">
          241 -10 85 548 85 -5 -20 62 69 -21 21 -21 68 -2 callgsubr
          2 0 callsubr
          hintmask 1011001110000000
          759 703 62 callgsubr
          hintmask 1101001101000000
          -89 callsubr
          hintmask 1011001110000000
          -25 callsubr
          hintmask 1100101110000000
          -98 callsubr
          vhcurveto
          118 780 -74 callgsubr
          hintmask 1100011110000000
          -103 callsubr
          hhcurveto
          hintmask 1101001110000000
          -96 callsubr
          endchar
        </CharString>
        <CharString name="Ohungarumlaut">
          -24 callgsubr
          42 133 hstem
          38 callgsubr
          vstem
          -107 callsubr
          -44 808 rmoveto
          -76 -133 rlineto
          62 hlineto
          113 70 callsubr
          155 hmoveto
          -76 -133 rlineto
          61 hlineto
          114 70 callsubr
          endchar
        </CharString>
        <CharString name="Omacron">
          -24 callgsubr
          60 60 hstem
          38 callgsubr
          vstem
          -107 callsubr
          142 753 -48 callsubr
          endchar
        </CharString>
        <CharString name="Omega">
          -43 callsubr
        </CharString>
        <CharString name="Oslash">
          174 -10 85 -84 -21 653 85 21 -64 callgsubr
          endchar
        </CharString>
        <CharString name="Oslashacute">
          174 -10 85 -84 -21 653 85 175 -64 callgsubr
          19 808 rmoveto
          -76 -133 rlineto
          62 hlineto
          113 133 rlineto
          endchar
        </CharString>
        <CharString name="Otilde">
          -24 callgsubr
          37 69 -21 21 -21 68 -2 callgsubr
          hintmask 11010110
          -107 callsubr
          119 780 -61 callsubr
        </CharString>
        <CharString name="P">
          32 21 -21 254 86 272 86 hstem
          97 91 358 91 vstem
          370 -29 callgsubr
          -273 -698 91 254 -32 callgsubr
          endchar
        </CharString>
        <CharString name="Q">
          175 -140 215 -85 85 548 85 -2 callgsubr
          hintmask 01111000
          552 18 rmoveto
          126 52 76 123 3 156 rrcurveto
          209 -4 -134 150 -213 hhcurveto
          -214 -133 -150 -209 -4 hvcurveto
          -209 4 133 -150 214 hhcurveto
          21 20 1 3 19 hvcurveto
          hintmask 10111000
          110 -134 rlineto
          112 3 hlineto
          -136 152 rlineto
          -146 60 rmoveto
          -97 callsubr
          endchar
        </CharString>
        <CharString name="R">
          74 callgsubr
          hstem
          97 91 368 91 vstem
          636 -92 callsubr
          endchar
        </CharString>
        <CharString name="Racute">
          74 callgsubr
          185 -20 hstem
          97 91 368 91 vstem
          636 -92 callsubr
          14 525 rmoveto
          -76 -133 rlineto
          62 hlineto
          113 133 rlineto
          endchar
        </CharString>
        <CharString name="Rcaron">
          74 callgsubr
          175 -20 hstem
          97 91 368 91 vstem
          636 -92 callsubr
          147 515 rmoveto
          -79 hlineto
          -75 -73 -75 73 rlineto
          -79 hlineto
          113 -123 rlineto
          82 hlineto
          endchar
        </CharString>
        <CharString name="Rcommaaccent">
          75 -262 -21 304 107 callgsubr
          hstemhm
          97 91 126 95 -48 48 147 91 hintmask 11111101
          636 -92 callsubr
          -55 -411 rmoveto
          -94 vlineto
          hintmask 11111011
          47 hlineto
          hintmask 11111101
          -100 callgsubr
          endchar
        </CharString>
        <CharString name="S">
          -21 -10 85 550 83 hstem
          58 90 335 90 vstem
          -89 callgsubr
          endchar
        </CharString>
        <CharString name="Sacute">
          -21 -10 85 550 83 175 -20 hstem
          58 90 335 90 vstem
          -89 callgsubr
          186 373 rmoveto
          -76 -133 rlineto
          62 hlineto
          113 133 rlineto
          endchar
        </CharString>
        <CharString name="Scaron">
          -21 -10 85 550 83 -83 248 hstemhm
          58 90 335 90 hintmask 11011000
          -89 callgsubr
          hintmask 10111000
          321 363 rmoveto
          -79 hlineto
          -75 -73 -75 73 rlineto
          -79 hlineto
          113 -123 rlineto
          82 hlineto
          endchar
        </CharString>
        <CharString name="Scedilla">
          -20 0 callgsubr
          49 85 550 83 hstem
          58 90 198 67 70 90 vstem
          336 5 callsubr
          146 6 95 80 109 264 -425 -112 173 vvcurveto
          75 78 40 101 73 63 -17 -21 52 vhcurveto
          7 85 hlineto
          21 -55 -69 15 -81 hhcurveto
          -169 -90 -94 -111 hvcurveto
          -246 425 82 -148 vvcurveto
          -87 -76 -29 -99 -115 -79 34 24 -43 vhcurveto
          -5 -89 hlineto
          54 -27 74 -23 95 -4 -54 -87 rcurveline
          -84 callsubr
        </CharString>
        <CharString name="Scircumflex">
          -21 -10 85 550 83 -83 248 hstemhm
          58 90 335 90 hintmask 11011000
          -89 callgsubr
          hintmask 10111000
          206 363 -106 callgsubr
          endchar
        </CharString>
        <CharString name="Scommaaccent">
          -20 -17 callgsubr
          43 0 85 550 83 hstemhm
          58 90 119 95 -48 48 121 90 hintmask 10111101
          -89 callgsubr
          hintmask 11011101
          119 -563 rmoveto
          -94 vlineto
          hintmask 11011011
          47 hlineto
          hintmask 11011101
          -100 callgsubr
          endchar
        </CharString>
        <CharString name="T">
          -26 21 -21 613 85 hstem
          260 91 vstem
          592 6 callsubr
          endchar
        </CharString>
        <CharString name="Tbar">
          -24 21 -21 336 67 210 85 hstem
          261 91 vstem
          593 51 callsubr
          -573 -85 241 -210 -160 -67 160 -336 91 336 161 67 -161 210 vlineto
          endchar
        </CharString>
        <CharString name="Tcaron">
          -26 21 -21 613 85 175 -20 hstem
          260 91 vstem
          592 6 callsubr
          -133 260 rmoveto
          -79 hlineto
          -75 -73 -75 73 rlineto
          -79 hlineto
          113 -123 rlineto
          82 hlineto
          endchar
        </CharString>
        <CharString name="Tcommaaccent">
          -23 callgsubr
        </CharString>
        <CharString name="Thorn">
          34 21 -21 142 86 272 86 112 -20 hstem
          97 91 358 91 vstem
          370 586 rmoveto
          -182 112 -91 -698 91 142 -32 callgsubr
          endchar
        </CharString>
        <CharString name="U">
          10 callsubr
          hstem
          91 callsubr
          vstem
          -101 callsubr
          436 vlineto
          endchar
        </CharString>
        <CharString name="Uacute">
          10 callsubr
          205 -20 hstem
          91 callsubr
          vstem
          -101 callsubr
          436 vlineto
          -274 185 rmoveto
          -76 -133 rlineto
          62 hlineto
          113 133 rlineto
          endchar
        </CharString>
        <CharString name="Ubreve">
          10 callsubr
          70 58 -58 116 101 callgsubr
          hintmask 11011100
          -101 callsubr
          436 vlineto
          -204 166 -21 callsubr
        </CharString>
        <CharString name="Ucircumflex">
          10 callsubr
          195 -20 hstem
          91 callsubr
          vstem
          -101 callsubr
          436 vlineto
          -246 175 -106 callgsubr
          endchar
        </CharString>
        <CharString name="Udieresis">
          10 callsubr
          72 96 hstem
          92 91 64 96 72 96 64 91 vstem
          -101 callsubr
          436 vlineto
          -419 52 -77 callsubr
          endchar
        </CharString>
        <CharString name="Udotbelow">
          121 65 callsubr
          86 callsubr
          hstem
          92 91 148 96 148 91 cntrmask 00011100
          -101 callsubr
          436 vlineto
          -335 -863 -85 callsubr
          endchar
        </CharString>
        <CharString name="Ugrave">
          10 callsubr
          205 -20 hstem
          91 callsubr
          vstem
          -101 callsubr
          436 vlineto
          -399 185 rmoveto
          113 -133 rlineto
          62 hlineto
          -76 133 rlineto
          endchar
        </CharString>
        <CharString name="Uhookabove">
          10 callsubr
          244 -20 hstem
          92 91 222 62 108 91 vstem
          -101 callsubr
          436 vlineto
          -314 224 -107 callgsubr
          endchar
        </CharString>
        <CharString name="Uhorn">
          206 -10 83 325 44 256 96 callgsubr
          hintmask 11111100
          -101 callsubr
          136 vlineto
          122 4 55 52 138 vvcurveto
          106 -108 -110 vlineto
          hintmask 11111010
          -6 callsubr
          endchar
        </CharString>
        <CharString name="Uhornacute">
          25 callgsubr
          205 96 callgsubr
          hintmask 11111110
          -101 callsubr
          136 vlineto
          122 4 55 52 138 vvcurveto
          106 -108 -110 vlineto
          hintmask 11111101
          -6 callsubr
          -274 185 rmoveto
          -76 -133 rlineto
          62 hlineto
          113 133 rlineto
          endchar
        </CharString>
        <CharString name="Uhorndotbelow">
          206 65 callsubr
          63 callsubr
          hstemhm
          92 91 148 96 148 91 69 0 callsubr
          hintmask 1111111100000000
          -101 callsubr
          136 vlineto
          122 4 55 52 138 vvcurveto
          106 -108 -110 vlineto
          hintmask 1111111010000000
          -6 callsubr
          -335 -863 -85 callsubr
          endchar
        </CharString>
        <CharString name="Uhorngrave">
          25 callgsubr
          205 96 callgsubr
          hintmask 11111110
          -101 callsubr
          136 vlineto
          122 4 55 52 138 vvcurveto
          106 -108 -110 vlineto
          hintmask 11111101
          -6 callsubr
          -399 185 rmoveto
          113 -133 rlineto
          62 hlineto
          -76 133 rlineto
          endchar
        </CharString>
        <CharString name="Uhornhookabove">
          25 callgsubr
          244 -20 hstemhm
          92 91 222 62 108 91 69 0 callsubr
          hintmask 1111111100000000
          -101 callsubr
          136 vlineto
          122 4 55 52 138 vvcurveto
          106 -108 -110 vlineto
          hintmask 1111111010000000
          -6 callsubr
          -314 224 -107 callgsubr
          endchar
        </CharString>
        <CharString name="Uhorntilde">
          25 callgsubr
          67 69 -21 21 -21 68 34 callgsubr
          hintmask 1111001110000000
          -101 callsubr
          136 vlineto
          122 4 55 52 138 vvcurveto
          106 -108 -110 vlineto
          hintmask 1110101101000000
          -6 callsubr
          -165 157 -74 callgsubr
          hintmask 1110011110000000
          -103 callsubr
          hhcurveto
          hintmask 1111001110000000
          -96 callsubr
          endchar
        </CharString>
        <CharString name="Uhungarumlaut">
          10 callsubr
          72 133 hstem
          91 callsubr
          vstem
          -101 callsubr
          436 vlineto
          -337 185 rmoveto
          -76 -133 rlineto
          62 hlineto
          113 70 callsubr
          155 hmoveto
          -76 -133 rlineto
          61 hlineto
          114 70 callsubr
          endchar
        </CharString>
        <CharString name="Umacron">
          10 callsubr
          90 60 hstem
          91 callsubr
          vstem
          -101 callsubr
          436 vlineto
          -145 130 -48 callsubr
          endchar
        </CharString>
        <CharString name="Uogonek">
          121 -203 56 137 86 callsubr
          hstem
          92 91 175 73 144 91 vstem
          575 -29 callgsubr
          -439 vlineto
          -125 -98 -61 -98 -98 -98 61 125 vhcurveto
          439 -91 -436 vlineto
          -188 153 -84 134 17 18 1 3 17 vhcurveto
          -43 -22 -30 -41 -50 vvcurveto
          -53 45 -31 48 40 29 12 15 22 vhcurveto
          47 vlineto
          -8 -14 -19 -10 -27 hhcurveto
          -36 -15 19 29 hvcurveto
          -1 51 59 55 41 20 rrcurveto
          77 41 59 77 117 vvcurveto
          436 vlineto
          endchar
        </CharString>
        <CharString name="Uring">
          10 callsubr
          52 45 98 45 hstem
          92 91 102 45 98 45 102 91 vstem
          -101 callsubr
          436 vlineto
          -287 220 -85 callgsubr
          endchar
        </CharString>
        <CharString name="Utilde">
          10 callsubr
          67 69 -21 21 -21 68 101 callgsubr
          hintmask 11010110
          -101 callsubr
          436 vlineto
          -165 157 -61 callsubr
        </CharString>
        <CharString name="V">
          57 100 callgsubr
          591 -29 callgsubr
          -242 -605 rlineto
          -4 hlineto
          -241 605 rlineto
          -99 hlineto
          288 -698 rlineto
          108 hlineto
          288 698 rlineto
          endchar
        </CharString>
        <CharString name="W">
          370 100 callgsubr
          900 -29 callgsubr
          -176 -576 rlineto
          -3 hlineto
          -178 576 rlineto
          -79 hlineto
          -178 -576 rlineto
          -3 hlineto
          -176 576 rlineto
          -95 hlineto
          228 -698 rlineto
          91 hlineto
          170 542 rlineto
          5 hlineto
          170 -542 rlineto
          91 hlineto
          228 698 rlineto
          endchar
        </CharString>
        <CharString name="Wcircumflex">
          370 -18 callsubr
          195 -20 hstem
          900 -29 callgsubr
          -176 -576 rlineto
          -3 hlineto
          -178 576 rlineto
          -79 hlineto
          -178 -576 rlineto
          -3 hlineto
          -176 576 rlineto
          -95 hlineto
          228 -698 rlineto
          91 hlineto
          170 542 rlineto
          5 hlineto
          170 -542 rlineto
          91 hlineto
          228 698 rlineto
          -451 175 -106 callgsubr
          endchar
        </CharString>
        <CharString name="X">
          32 100 callgsubr
          386 350 rmoveto
          267 348 rlineto
          -110 hlineto
          -204 -278 rlineto
          -5 hlineto
          -205 278 rlineto
          -114 hlineto
          268 -349 -268 -349 rlineto
          108 hlineto
          206 280 rlineto
          5 hlineto
          209 -280 rlineto
          113 hlineto
          endchar
        </CharString>
        <CharString name="Y">
          8 100 callgsubr
          277 91 vstem
          541 -79 callgsubr
          endchar
        </CharString>
        <CharString name="Yacute">
          98 callsubr
          205 -20 hstem
          277 91 vstem
          541 -79 callgsubr
          -307 185 rmoveto
          -76 -133 rlineto
          62 hlineto
          113 133 rlineto
          endchar
        </CharString>
        <CharString name="Ycircumflex">
          98 callsubr
          195 -20 hstem
          277 91 vstem
          541 -79 callgsubr
          -289 175 -106 callgsubr
          endchar
        </CharString>
        <CharString name="Ydieresis">
          98 callsubr
          72 96 hstemhm
          191 96 -10 91 -9 96 hintmask 11101000
          541 -79 callgsubr
          hintmask 11110100
          -461 52 -77 callsubr
          endchar
        </CharString>
        <CharString name="Ydotbelow">
          6 -156 96 81 93 callsubr
          hstem
          276 91 vstem
          540 -79 callgsubr
          -377 -854 -85 callsubr
          endchar
        </CharString>
        <CharString name="Ygrave">
          98 callsubr
          205 -20 hstem
          277 91 vstem
          541 -79 callgsubr
          -451 185 rmoveto
          113 -133 rlineto
          62 hlineto
          -76 133 rlineto
          endchar
        </CharString>
        <CharString name="Yhookabove">
          98 callsubr
          244 -20 hstemhm
          277 91 -12 62 hintmask 11110000
          541 -79 callgsubr
          -349 224 rmoveto
          -24 -17 -3 0 hvcurveto
          -46 vlineto
          1 9 8 0 9 hhcurveto
          hintmask 11101000
          -5 callsubr
        </CharString>
        <CharString name="Ytilde">
          98 callsubr
          67 -30 callgsubr
          277 91 hintmask 11010100
          541 -79 callgsubr
          -208 157 -74 callgsubr
          hintmask 11001100
          -103 callsubr
          hhcurveto
          hintmask 11100100
          -96 callsubr
          endchar
        </CharString>
        <CharString name="Z">
          101 callsubr
          hstem
          -38 callsubr
          endchar
        </CharString>
        <CharString name="Zacute">
          101 callsubr
          185 -20 hstem
          -38 callsubr
          -253 267 rmoveto
          -76 -133 rlineto
          62 hlineto
          113 133 rlineto
          endchar
        </CharString>
        <CharString name="Zcaron">
          101 callsubr
          175 -20 hstem
          -38 callsubr
          -113 257 rmoveto
          -79 hlineto
          -75 -73 -75 73 rlineto
          -79 hlineto
          113 -123 rlineto
          82 hlineto
          endchar
        </CharString>
        <CharString name="Zdotaccent">
          101 callsubr
          52 96 hstem
          279 96 vstem
          -38 callsubr
          -308 134 -30 callsubr
          endchar
        </CharString>
        <CharString name="a">
          -68 callgsubr
          28 callsubr
          hintmask 10111100
          271 520 rmoveto
          -74 -61 -17 -21 -48 hvcurveto
          -82 6 vlineto
          17 35 53 17 73 hhcurveto
          90 44 -35 -89 hvcurveto
          -8 -121 vlineto
          -156 -74 -68 -94 -94 76 -56 87 94 55 37 37 36 hvcurveto
          3 hlineto
          hintmask 01111100
          -91 callgsubr
          hintmask 10111100
          -93 callsubr
          endchar
        </CharString>
        <CharString name="a.alt">
          -6 -10 -66 callsubr
          hstemhm
          48 91 322 91 hintmask 10101100
          290 520 rmoveto
          -121 -121 -95 -170 -170 121 -95 121 70 52 26 48 46 hvcurveto
          3 hlineto
          hintmask 01011100
          -78 callsubr
          hintmask 10101100
          -102 callsubr
          endchar
        </CharString>
        <CharString name="a.smcp">
          -27 callsubr
          332 -20 hstem
          330 550 -104 callgsubr
          endchar
        </CharString>
        <CharString name="aacute">
          -68 callgsubr
          191 108 callgsubr
          hintmask 10111110
          271 520 rmoveto
          -74 -61 -17 -21 -48 hvcurveto
          -82 6 vlineto
          17 35 53 17 73 hhcurveto
          90 44 -35 -89 hvcurveto
          -8 -121 vlineto
          -156 -74 -68 -94 -94 76 -56 87 94 55 37 37 36 hvcurveto
          3 hlineto
          hintmask 01111110
          -91 callgsubr
          hintmask 10111110
          -93 callsubr
          -102 482 rmoveto
          -76 -133 rlineto
          62 hlineto
          113 133 rlineto
          endchar
        </CharString>
        <CharString name="aacute.alt">
          -6 -10 -66 callsubr
          221 36 callgsubr
          hintmask 10101110
          290 520 rmoveto
          -121 -121 -95 -170 -170 121 -95 121 70 52 26 48 46 hvcurveto
          3 hlineto
          hintmask 01011110
          -78 callsubr
          hintmask 10101110
          -102 callsubr
          26 636 rmoveto
          -76 -133 rlineto
          62 hlineto
          113 133 rlineto
          endchar
        </CharString>
        <CharString name="aacute.smcp">
          -27 callsubr
          527 -20 hstem
          317 745 rmoveto
          -76 -133 rlineto
          62 hlineto
          113 133 rlineto
          -86 -195 -104 callgsubr
          endchar
        </CharString>
        <CharString name="abreve">
          -68 callgsubr
          56 58 -58 116 28 callsubr
          hintmask 10111011
          271 520 rmoveto
          -74 -61 -17 -21 -48 hvcurveto
          -82 6 vlineto
          17 35 53 17 73 hhcurveto
          90 44 -35 -89 hvcurveto
          -8 -121 vlineto
          -156 -74 -68 -94 -94 76 -56 87 94 55 37 37 36 hvcurveto
          3 hlineto
          hintmask 01111011
          -91 callgsubr
          hintmask 10110111
          50 callsubr
          hintmask 10111011
          -69 callsubr
          hintmask 10110111
          -103 callgsubr
          endchar
        </CharString>
        <CharString name="abreve.alt">
          -6 -10 -66 callsubr
          86 -1 callgsubr
          48 49 callgsubr
          hintmask 10101011
          290 520 rmoveto
          -121 -121 -95 -170 -170 121 -95 121 70 52 26 48 46 hvcurveto
          3 hlineto
          hintmask 01011011
          -78 callsubr
          hintmask 10100111
          8 callsubr
          hintmask 10101011
          -69 callsubr
          hintmask 10100111
          -103 callgsubr
          endchar
        </CharString>
        <CharString name="abreve.smcp">
          -27 callsubr
          383 -1 callgsubr
          hintmask 11010000
          370 717 rmoveto
          hintmask 11100000
          -69 callsubr
          hintmask 11010000
          -103 callgsubr
          -104 -167 -104 callgsubr
          endchar
        </CharString>
        <CharString name="abreveacute">
          -68 callgsubr
          56 -37 callsubr
          -116 250 -73 callgsubr
          -37 463 rmoveto
          hintmask 1011100110000000
          -69 callsubr
          hintmask 1011010110000000
          -103 callgsubr
          hintmask 1011001110000000
          -115 134 rmoveto
          -76 -133 rlineto
          62 hlineto
          113 133 rlineto
          endchar
        </CharString>
        <CharString name="abreveacute.alt">
          -6 -10 -66 callsubr
          86 -37 callsubr
          -116 250 -71 callgsubr
          88 617 rmoveto
          hintmask 1010100110000000
          -69 callsubr
          hintmask 1010010110000000
          -103 callgsubr
          hintmask 1010001110000000
          -115 134 rmoveto
          -76 -133 rlineto
          62 hlineto
          113 133 rlineto
          endchar
        </CharString>
        <CharString name="abreveacute.smcp">
          -27 callsubr
          384 -37 callsubr
          -116 250 hstemhm
          hintmask 11010000
          330 550 -104 callgsubr
          -8 496 rmoveto
          hintmask 11100000
          -69 callsubr
          hintmask 11010000
          -103 callgsubr
          hintmask 11001000
          -115 134 rmoveto
          -76 -133 rlineto
          62 hlineto
          113 133 rlineto
          endchar
        </CharString>
        <CharString name="abrevedotbelow">
          -82 65 callsubr
          80 -49 -21 229 73 132 86 51 -1 callgsubr
          38 91 92 96 72 91 hintmask 1101110111000000
          271 520 rmoveto
          -74 -61 -17 -21 -48 hvcurveto
          -82 6 vlineto
          17 35 53 17 73 hhcurveto
          90 44 -35 -89 hvcurveto
          -8 -121 vlineto
          -156 -74 -68 -94 -94 76 -56 87 94 55 37 37 36 hvcurveto
          3 hlineto
          hintmask 1011110111000000
          -91 callgsubr
          hintmask 1101101111000000
          -93 callsubr
          -35 458 rmoveto
          hintmask 1101110111000000
          -69 callsubr
          hintmask 1101101111000000
          -103 callgsubr
          -197 -852 -85 callsubr
          endchar
        </CharString>
        <CharString name="abrevedotbelow.alt">
          -6 65 callsubr
          -66 callsubr
          81 -1 callgsubr
          48 91 129 96 97 91 hintmask 1101010111000000
          290 520 rmoveto
          -121 -121 -95 -170 -170 121 -95 121 70 52 26 48 46 hvcurveto
          3 hlineto
          hintmask 1010110111000000
          -78 callsubr
          hintmask 1101001111000000
          -28 callsubr
          612 rmoveto
          hintmask 1101010111000000
          -69 callsubr
          hintmask 1101001111000000
          -103 callgsubr
          -187 -852 -85 callsubr
          endchar
        </CharString>
        <CharString name="abrevedotbelow.smcp">
          -65 -156 96 81 49 callsubr
          393 -1 callgsubr
          238 96 hintmask 11101100
          329 550 -104 callgsubr
          -8 505 21 callgsubr
          -195 -883 -85 callsubr
          endchar
        </CharString>
        <CharString name="abrevegrave">
          -68 callgsubr
          56 -37 callsubr
          -116 250 -73 callgsubr
          -37 463 rmoveto
          hintmask 1011100110000000
          -69 callsubr
          hintmask 1011010110000000
          -103 callgsubr
          hintmask 1011001110000000
          -278 134 rmoveto
          113 -133 rlineto
          62 hlineto
          -76 133 rlineto
          endchar
        </CharString>
        <CharString name="abrevegrave.alt">
          -6 -10 -66 callsubr
          86 -37 callsubr
          -116 250 -71 callgsubr
          88 617 rmoveto
          hintmask 1010100110000000
          -69 callsubr
          hintmask 1010010110000000
          -103 callgsubr
          hintmask 1010001110000000
          -278 134 rmoveto
          113 -133 rlineto
          62 hlineto
          -76 133 rlineto
          endchar
        </CharString>
        <CharString name="abrevegrave.smcp">
          -27 callsubr
          384 -37 callsubr
          -116 250 hstemhm
          hintmask 11010000
          330 550 -104 callgsubr
          -8 496 rmoveto
          hintmask 11100000
          -69 callsubr
          hintmask 11010000
          -103 callgsubr
          hintmask 11001000
          -278 134 rmoveto
          113 -133 rlineto
          62 hlineto
          -76 133 rlineto
          endchar
        </CharString>
        <CharString name="abrevehookabove">
          -68 callgsubr
          56 -37 callsubr
          164 -20 hstemhm
          38 91 174 62 24 91 hintmask 1011101111000000
          271 520 rmoveto
          -74 -61 -17 -21 -48 hvcurveto
          -82 6 vlineto
          17 35 53 17 73 hhcurveto
          90 44 -35 -89 hvcurveto
          -8 -121 vlineto
          -156 -74 -68 -94 -94 76 -56 87 94 55 37 37 36 hvcurveto
          3 hlineto
          hintmask 0111101111000000
          -91 callgsubr
          hintmask 1011011111000000
          -93 callsubr
          -139 627 -107 callgsubr
          102 -164 rmoveto
          hintmask 1011101111000000
          -69 callsubr
          hintmask 1011011111000000
          -103 callgsubr
          endchar
        </CharString>
        <CharString name="abrevehookabove.alt">
          -6 -10 -66 callsubr
          86 -37 callsubr
          164 -20 hstemhm
          48 91 203 62 57 91 hintmask 1010101111000000
          290 520 rmoveto
          -121 -121 -95 -170 -170 121 -95 121 70 52 26 48 46 hvcurveto
          3 hlineto
          hintmask 0101101111000000
          -78 callsubr
          hintmask 1010011111000000
          -102 callsubr
          -14 7 callgsubr
          102 -164 rmoveto
          hintmask 1010101111000000
          -69 callsubr
          hintmask 1010011111000000
          -103 callgsubr
          endchar
        </CharString>
        <CharString name="abrevehookabove.smcp">
          -27 callsubr
          384 -37 callsubr
          164 -20 hstemhm
          321 62 hintmask 11011100
          330 550 -104 callgsubr
          -110 660 -107 callgsubr
          102 -164 -21 callsubr
        </CharString>
        <CharString name="abrevetilde">
          -68 callgsubr
          56 -37 callsubr
          24 69 -21 21 -21 68 28 callsubr
          hintmask 1011101001100000
          271 520 rmoveto
          -74 -61 -17 -21 -48 hvcurveto
          -82 6 vlineto
          17 35 53 17 73 hhcurveto
          90 44 -35 -89 hvcurveto
          -8 -121 vlineto
          -156 -74 -68 -94 -94 76 -56 87 94 55 37 37 36 hvcurveto
          3 hlineto
          hintmask 0111101001100000
          -91 callgsubr
          hintmask 1011011001100000
          50 callsubr
          hintmask 1011101001100000
          -69 callsubr
          hintmask 1011010101100000
          -103 callgsubr
          -27 134 -74 callgsubr
          hintmask 1011100011100000
          -103 callsubr
          hhcurveto
          hintmask 1011101001100000
          -96 callsubr
          endchar
        </CharString>
        <CharString name="abrevetilde.alt">
          -6 -10 -66 callsubr
          86 -37 callsubr
          24 -30 callgsubr
          48 49 callgsubr
          hintmask 1010101001100000
          290 520 rmoveto
          -121 -121 -95 -170 -170 121 -95 121 70 52 26 48 46 hvcurveto
          3 hlineto
          hintmask 0101101001100000
          -78 callsubr
          hintmask 1010011001100000
          8 callsubr
          hintmask 1010101001100000
          -69 callsubr
          hintmask 1010010101100000
          -103 callgsubr
          -27 134 -74 callgsubr
          hintmask 1010100011100000
          -103 callsubr
          hhcurveto
          hintmask 1010101001100000
          -96 callsubr
          endchar
        </CharString>
        <CharString name="abrevetilde.smcp">
          -27 callsubr
          384 -37 callsubr
          72 68 -47 -21 hstemhm
          hintmask 11011000
          330 550 -104 callgsubr
          -8 496 rmoveto
          hintmask 11101000
          -69 callsubr
          hintmask 11010100
          -103 callgsubr
          -27 134 -74 callgsubr
          hintmask 11011000
          -37 callgsubr
          endchar
        </CharString>
        <CharString name="acircumflex">
          85 callgsubr
          hstemhm
          38 91 260 91 hintmask 10111110
          271 520 rmoveto
          -74 -61 -17 -21 -48 hvcurveto
          -82 6 vlineto
          17 35 53 17 73 hhcurveto
          90 44 -35 -89 hvcurveto
          -8 -121 vlineto
          -156 -74 -68 -94 -94 76 -56 87 94 55 37 37 36 hvcurveto
          3 hlineto
          hintmask 01111110
          -91 callgsubr
          hintmask 10111110
          39 callsubr
          -113 -123 rlineto
          79 hlineto
          75 73 75 -73 rlineto
          79 hlineto
          endchar
        </CharString>
        <CharString name="acircumflex.alt">
          87 callsubr
          hstemhm
          48 91 322 91 hintmask 10101110
          290 520 rmoveto
          -121 -121 -95 -170 -170 121 -95 121 70 52 26 48 46 hvcurveto
          3 hlineto
          hintmask 01011110
          -78 callsubr
          hintmask 10101110
          -102 callsubr
          47 626 -106 callgsubr
          endchar
        </CharString>
        <CharString name="acircumflex.smcp">
          -27 callsubr
          517 -20 hstem
          328 735 -106 callgsubr
          -111 -62 -104 callgsubr
          endchar
        </CharString>
        <CharString name="acircumflexacute">
          85 callgsubr
          119 108 callgsubr
          hintmask 10111111
          271 520 rmoveto
          -74 -61 -17 -21 -48 hvcurveto
          -82 6 vlineto
          17 35 53 17 73 hhcurveto
          90 44 -35 -89 hvcurveto
          -8 -121 vlineto
          -156 -74 -68 -94 -94 76 -56 87 94 55 37 37 36 hvcurveto
          3 hlineto
          hintmask 01111111
          -91 callgsubr
          hintmask 10111111
          39 callsubr
          -113 -123 rlineto
          79 hlineto
          75 73 75 -73 rlineto
          79 hlineto
          25 222 rmoveto
          -76 -133 rlineto
          62 hlineto
          113 133 rlineto
          endchar
        </CharString>
        <CharString name="acircumflexacute.alt">
          87 callsubr
          119 36 callgsubr
          hintmask 10101111
          290 520 rmoveto
          -121 -121 -95 -170 -170 121 -95 121 70 52 26 48 46 hvcurveto
          3 hlineto
          hintmask 01011111
          -78 callsubr
          hintmask 10101111
          -102 callsubr
          47 626 -106 callgsubr
          25 222 rmoveto
          -76 -133 rlineto
          62 hlineto
          113 133 rlineto
          endchar
        </CharString>
        <CharString name="acircumflexacute.smcp">
          -27 callsubr
          606 -20 hstem
          330 550 -104 callgsubr
          -50 503 -106 callgsubr
          25 222 rmoveto
          -76 -133 rlineto
          62 hlineto
          113 133 rlineto
          endchar
        </CharString>
        <CharString name="acircumflexdotbelow">
          -82 65 callsubr
          80 -49 -21 229 73 132 86 181 -20 hstemhm
          38 91 92 96 72 91 hintmask 1101111110000000
          271 520 rmoveto
          -74 -61 -17 -21 -48 hvcurveto
          -82 6 vlineto
          17 35 53 17 73 hhcurveto
          90 44 -35 -89 hvcurveto
          -8 -121 vlineto
          -156 -74 -68 -94 -94 76 -56 87 94 55 37 37 36 hvcurveto
          3 hlineto
          hintmask 1011111110000000
          -91 callgsubr
          hintmask 1101111110000000
          39 callsubr
          -113 -123 rlineto
          79 hlineto
          75 73 75 -73 rlineto
          79 hlineto
          -206 -743 -85 callsubr
          endchar
        </CharString>
        <CharString name="acircumflexdotbelow.alt">
          -6 65 callsubr
          -66 callsubr
          211 -20 hstemhm
          48 91 129 96 97 91 hintmask 1101011110000000
          290 520 rmoveto
          -121 -121 -95 -170 -170 121 -95 121 70 52 26 48 46 hvcurveto
          3 hlineto
          hintmask 1010111110000000
          -78 callsubr
          hintmask 1101011110000000
          -102 callsubr
          47 626 -106 callgsubr
          -195 -743 -85 callsubr
          endchar
        </CharString>
        <CharString name="acircumflexdotbelow.smcp">
          -65 -156 96 81 49 callsubr
          517 -20 hstem
          238 96 vstem
          329 550 -104 callgsubr
          -50 513 -106 callgsubr
          -202 -768 -85 callsubr
          endchar
        </CharString>
        <CharString name="acircumflexgrave">
          85 callgsubr
          119 108 callgsubr
          hintmask 10111111
          271 520 rmoveto
          -74 -61 -17 -21 -48 hvcurveto
          -82 6 vlineto
          17 35 53 17 73 hhcurveto
          90 44 -35 -89 hvcurveto
          -8 -121 vlineto
          -156 -74 -68 -94 -94 76 -56 87 94 55 37 37 36 hvcurveto
          3 hlineto
          hintmask 01111111
          -91 callgsubr
          hintmask 10111111
          -93 callsubr
          -72 472 -86 callsubr
        </CharString>
        <CharString name="acircumflexgrave.alt">
          87 callsubr
          119 36 callgsubr
          hintmask 10101111
          290 520 rmoveto
          -121 -121 -95 -170 -170 121 -95 121 70 52 26 48 46 hvcurveto
          3 hlineto
          hintmask 01011111
          -78 callsubr
          hintmask 10101111
          -102 callsubr
          47 626 -86 callsubr
        </CharString>
        <CharString name="acircumflexgrave.smcp">
          -27 callsubr
          606 -20 hstem
          330 550 -104 callgsubr
          -50 503 -86 callsubr
        </CharString>
        <CharString name="acircumflexhookabove">
          -68 callgsubr
          58 224 -101 108 callgsubr
          1 62 hintmask 1011101110000000
          271 520 rmoveto
          -74 -61 -17 -21 -48 hvcurveto
          -82 6 vlineto
          17 35 53 17 73 hhcurveto
          90 44 -35 -89 hvcurveto
          -8 -121 vlineto
          -156 -74 -68 -94 -94 76 -56 87 94 55 37 37 36 hvcurveto
          3 hlineto
          hintmask 0111101110000000
          -91 callgsubr
          hintmask 1011011110000000
          39 callsubr
          hintmask 1011101110000000
          -113 -123 rlineto
          79 hlineto
          75 73 75 -73 rlineto
          79 hlineto
          hintmask 1011011110000000
          hintmask 1011101110000000
          1 224 -107 callgsubr
          endchar
        </CharString>
        <CharString name="acircumflexhookabove.alt">
          -6 -10 -66 callsubr
          88 224 -101 36 callgsubr
          -35 62 hintmask 1010101100000000
          290 520 rmoveto
          -121 -121 -95 -170 -170 121 -95 121 70 52 26 48 46 hvcurveto
          3 hlineto
          hintmask 0101101100000000
          -78 callsubr
          hintmask 1010011100000000
          -102 callsubr
          47 626 rmoveto
          -82 hlineto
          hintmask 1010101100000000
          -113 -123 rlineto
          79 hlineto
          75 73 75 -73 rlineto
          79 hlineto
          hintmask 1010011100000000
          hintmask 1010101010000000
          1 224 -107 callgsubr
          endchar
        </CharString>
        <CharString name="acircumflexhookabove.smcp">
          -27 callsubr
          384 224 hstem
          495 62 vstem
          330 550 -104 callgsubr
          -50 503 -106 callgsubr
          1 224 -107 callgsubr
          endchar
        </CharString>
        <CharString name="acircumflextilde">
          -68 callgsubr
          53 213 -69 69 -21 68 -67 callgsubr
          hintmask 1011100110000000
          -93 callsubr
          -74 467 -106 callgsubr
          -34 254 -74 callgsubr
          hintmask 1011001110000000
          -103 callsubr
          hhcurveto
          hintmask 1011010110000000
          -96 callsubr
          endchar
        </CharString>
        <CharString name="acircumflextilde.alt">
          -6 -10 -66 callsubr
          83 213 -69 69 -21 68 -47 callsubr
          hintmask 1010100110000000
          -102 callsubr
          47 621 -106 callgsubr
          -34 254 -74 callgsubr
          hintmask 1010001110000000
          -103 callsubr
          hhcurveto
          hintmask 1010010110000000
          -96 callsubr
          endchar
        </CharString>
        <CharString name="acircumflextilde.smcp">
          -27 callsubr
          572 68 -47 -21 hstemhm
          hintmask 11010000
          330 550 -104 callgsubr
          -50 499 -106 callgsubr
          -34 254 -74 callgsubr
          hintmask 11100000
          -37 callgsubr
          endchar
        </CharString>
        <CharString name="acute">
          -397 599 -21 133 -20 hstem
          111 711 rmoveto
          -76 -133 rlineto
          62 hlineto
          113 133 rlineto
          endchar
        </CharString>
        <CharString name="acute.cap">
          -397 771 -21 133 -20 hstem
          111 84 callsubr
          endchar
        </CharString>
        <CharString name="adieresis">
          -68 callgsubr
          58 96 hstemhm
          38 91 13 96 72 96 -17 91 hintmask 1011111010000000
          271 520 rmoveto
          -74 -61 -17 -21 -48 hvcurveto
          -82 6 vlineto
          17 35 53 17 73 hhcurveto
          90 44 -35 -89 hvcurveto
          -8 -121 vlineto
          -156 -74 -68 -94 -94 76 -56 87 94 55 37 37 36 hvcurveto
          3 hlineto
          hintmask 0111111010000000
          -91 callgsubr
          hintmask 1011111010000000
          -93 callsubr
          -247 349 -85 callsubr
          hintmask 1011111100000000
          -56 callsubr
          endchar
        </CharString>
        <CharString name="adieresis.alt">
          -6 -10 -66 callsubr
          88 96 hstemhm
          48 91 35 96 72 96 23 91 hintmask 1010111110000000
          290 520 rmoveto
          -121 -121 -95 -170 -170 121 -95 121 70 52 26 48 46 hvcurveto
          3 hlineto
          hintmask 0101111110000000
          -78 callsubr
          hintmask 1010111110000000
          -102 callsubr
          -129 503 -77 callsubr
          endchar
        </CharString>
        <CharString name="adieresis.smcp">
          -27 callsubr
          394 96 hstem
          155 96 72 96 vstem
          155 612 -77 callsubr
          7 -158 -104 callgsubr
          endchar
        </CharString>
        <CharString name="adotbelow">
          -82 65 callsubr
          80 -49 -21 229 73 132 86 hstemhm
          38 91 92 96 72 91 hintmask 11011111
          271 520 rmoveto
          -74 -61 -17 -21 -48 hvcurveto
          -82 6 vlineto
          17 35 53 17 73 hhcurveto
          90 44 -35 -89 hvcurveto
          -8 -121 vlineto
          -156 -74 -68 -94 -94 76 -56 87 94 55 37 37 36 hvcurveto
          3 hlineto
          hintmask 10111111
          -91 callgsubr
          hintmask 11011111
          -93 callsubr
          -168 -394 -85 callsubr
          endchar
        </CharString>
        <CharString name="adotbelow.alt">
          -6 65 callsubr
          -66 callsubr
          hstemhm
          48 91 129 96 97 91 hintmask 11010111
          290 520 rmoveto
          -121 -121 -95 -170 -170 121 -95 121 70 52 26 48 46 hvcurveto
          3 hlineto
          hintmask 10101111
          -78 callsubr
          hintmask 11010111
          -102 callsubr
          -35 -240 -85 callsubr
          endchar
        </CharString>
        <CharString name="adotbelow.smcp">
          -65 -156 96 81 49 callsubr
          332 -20 hstem
          238 96 vstem
          329 550 -104 callgsubr
          -139 -378 -85 callsubr
          endchar
        </CharString>
        <CharString name="ae">
          113 callsubr
          hstem
          37 91 260 85 298 90 vstem
          861 255 rmoveto
          135 -73 130 -166 -84 -59 -33 -51 -38 vhcurveto
          49 -30 -54 35 -87 hhcurveto
          -74 -61 -17 -21 -48 hvcurveto
          -83 4 vlineto
          17 35 54 18 74 hhcurveto
          90 44 -35 -89 hvcurveto
          -11 -121 vlineto
          -156 -74 -65 -94 -94 90 -56 106 68 91 15 72 47 hvcurveto
          -56 43 69 -31 91 hhcurveto
          87 54 20 27 48 hvcurveto
          89 -3 vlineto
          -29 -44 -51 -22 -83 hhcurveto
          -116 -51 61 90 -10 hvcurveto
          388 hlineto
          -473 -57 rmoveto
          -81 -75 -18 -62 -81 -42 37 43 57 57 19 94 vhcurveto
          109 hlineto
          85 73 rmoveto
          104 6 79 40 64 hhcurveto
          64 79 -40 -104 6 hvcurveto
          endchar
        </CharString>
        <CharString name="ae.smcp">
          220 0 83 56 81 14 83 150 83 -16 callsubr
          endchar
        </CharString>
        <CharString name="aeacute">
          113 callsubr
          191 -20 hstem
          37 91 260 85 298 90 vstem
          861 255 rmoveto
          135 -73 130 -166 -84 -59 -33 -51 -38 vhcurveto
          49 -30 -54 35 -87 hhcurveto
          -74 -61 -17 -21 -48 hvcurveto
          -83 4 vlineto
          17 35 54 18 74 hhcurveto
          90 44 -35 -89 hvcurveto
          -11 -121 vlineto
          -156 -74 -65 -94 -94 90 -56 106 68 91 15 72 47 hvcurveto
          -56 43 69 -31 91 hhcurveto
          87 54 20 27 48 hvcurveto
          89 -3 vlineto
          -29 -44 -51 -22 -83 hhcurveto
          -116 -51 61 90 -10 hvcurveto
          388 hlineto
          -473 -57 rmoveto
          -81 -75 -18 -62 -81 -42 37 43 57 57 19 94 vhcurveto
          109 hlineto
          85 73 rmoveto
          104 6 79 40 64 hhcurveto
          64 79 -40 -104 6 hvcurveto
          -306 412 rmoveto
          -76 -133 rlineto
          62 hlineto
          113 133 rlineto
          endchar
        </CharString>
        <CharString name="aeacute.smcp">
          220 0 83 56 81 14 83 150 83 195 -20 -16 callsubr
          70 278 rmoveto
          -76 -133 rlineto
          62 hlineto
          113 133 rlineto
          endchar
        </CharString>
        <CharString name="agrave">
          -68 callgsubr
          191 108 callgsubr
          hintmask 10111110
          271 520 rmoveto
          -74 -61 -17 -21 -48 hvcurveto
          -82 6 vlineto
          17 35 53 17 73 hhcurveto
          90 44 -35 -89 hvcurveto
          -8 -121 vlineto
          -156 -74 -68 -94 -94 76 -56 87 94 55 37 37 36 hvcurveto
          3 hlineto
          hintmask 01111110
          -91 callgsubr
          hintmask 10111110
          -93 callsubr
          -234 482 rmoveto
          113 -133 rlineto
          62 hlineto
          -76 133 rlineto
          endchar
        </CharString>
        <CharString name="agrave.alt">
          -6 -10 -66 callsubr
          221 36 callgsubr
          hintmask 10101110
          290 520 rmoveto
          -121 -121 -95 -170 -170 121 -95 121 70 52 26 48 46 hvcurveto
          3 hlineto
          hintmask 01011110
          -78 callsubr
          hintmask 10101110
          -102 callsubr
          -123 636 rmoveto
          113 -133 rlineto
          62 hlineto
          -76 133 rlineto
          endchar
        </CharString>
        <CharString name="agrave.smcp">
          -27 callsubr
          527 -20 hstem
          158 745 rmoveto
          113 -133 rlineto
          62 hlineto
          -76 133 rlineto
          73 -195 -104 callgsubr
          endchar
        </CharString>
        <CharString name="ahookabove">
          -68 callgsubr
          179 -20 68 -20 hstemhm
          38 91 172 62 26 91 hintmask 1011111110000000
          271 520 rmoveto
          -74 -61 -17 -21 -48 hvcurveto
          -82 6 vlineto
          17 35 53 17 73 hhcurveto
          90 44 -35 -89 hvcurveto
          -8 -121 vlineto
          -156 -74 -68 -94 -94 76 -56 87 94 55 37 37 36 hvcurveto
          3 hlineto
          hintmask 0111111110000000
          -91 callgsubr
          hintmask 1011111110000000
          -93 callsubr
          -141 518 -107 callgsubr
          endchar
        </CharString>
        <CharString name="ahookabove.alt">
          -6 -10 -66 callsubr
          209 -20 68 -20 hstemhm
          48 91 198 62 62 91 hintmask 1010111110000000
          290 520 rmoveto
          -121 -121 -95 -170 -170 121 -95 121 70 52 26 48 46 hvcurveto
          3 hlineto
          hintmask 0101111110000000
          -78 callsubr
          hintmask 1010111110000000
          -102 callsubr
          -19 672 -107 callgsubr
          endchar
        </CharString>
        <CharString name="ahookabove.smcp">
          -27 callsubr
          563 -20 hstem
          323 62 vstem
          330 550 -104 callgsubr
          -108 559 -107 callgsubr
          endchar
        </CharString>
        <CharString name="amacron">
          -68 callgsubr
          68 60 28 callsubr
          hintmask 10111110
          271 520 rmoveto
          -74 -61 -17 -21 -48 hvcurveto
          -82 6 vlineto
          17 35 53 17 73 hhcurveto
          90 44 -35 -89 hvcurveto
          -8 -121 vlineto
          -156 -74 -68 -94 -94 76 -56 87 94 55 37 37 36 hvcurveto
          3 hlineto
          hintmask 01111110
          -91 callgsubr
          hintmask 10111110
          -93 callsubr
          20 419 -48 callsubr
          endchar
        </CharString>
        <CharString name="amacron.alt">
          -6 -10 -66 callsubr
          98 60 hstemhm
          48 49 callgsubr
          hintmask 10101110
          290 520 rmoveto
          -121 -121 -95 -170 -170 121 -95 121 70 52 26 48 46 hvcurveto
          3 hlineto
          hintmask 01011110
          -78 callsubr
          hintmask 10101110
          -102 callsubr
          144 573 -48 callsubr
          endchar
        </CharString>
        <CharString name="amacron.smcp">
          -27 callsubr
          397 60 hstem
          429 675 -48 callsubr
          -99 -125 -104 callgsubr
          endchar
        </CharString>
        <CharString name="ampersand">
          95 -10 77 -46 -21 630 78 hstemhm
          71 86 -34 84 hintmask 10101000
          579 14 callgsubr
          46 70 60 46 -30 -27 29 vhcurveto
          2 86 hlineto
          26 -37 -49 23 -55 hhcurveto
          -117 -70 115 callsubr
          hintmask 10110000
          63 callgsubr
          hintmask 01110000
          97 callgsubr
          hintmask 10110000
          38 callsubr
        </CharString>
        <CharString name="ampersand.alt">
          45 -10 77 -46 -21 551 157 -80 80 hstemhm
          48 86 -34 84 hintmask 10010100
          556 14 callgsubr
          44 70 vhcurveto
          hintmask 10100100
          63 37 -36 -41 6 hvcurveto
          84 hlineto
          88 -6 -72 69 -111 hhcurveto
          -117 -75 115 callsubr
          hintmask 10101000
          63 callgsubr
          hintmask 01101000
          97 callgsubr
          hintmask 10101000
          38 callsubr
        </CharString>
        <CharString name="ampersand.smcp">
          -64 -8 78 -78 225 -196 -21 478 80 hstemhm
          59 84 -45 84 hintmask 01010100
          519 217 rmoveto
          -82 hlineto
          -7 -18 -9 -19 -10 -18 rrcurveto
          -3 hlineto
          -154 145 rlineto
          -41 38 -31 30 43 vvcurveto
          50 52 10 19 43 38 -19 -19 29 vhcurveto
          4 77 hlineto
          24 -32 -39 17 -46 hhcurveto
          -68 -84 -43 -100 -43 20 -37 24 -31 hvcurveto
          hintmask 01011000
          62 callsubr
          hintmask 00111000
          46 -43 rlineto
          116 2 hlineto
          -108 102 rlineto
          4 vlineto
          hintmask 01011000
          25 37 15 41 10 31 rrcurveto
          hintmask 10011000
          -266 -147 rmoveto
          54 callgsubr
          -4 vlineto
          -17 -26 -33 -11 -40 hhcurveto
          endchar
        </CharString>
        <CharString name="ampersand.smcp.alt">
          -56 -8 78 -78 225 -196 -21 428 130 -80 80 hstemhm
          54 84 -45 84 hintmask 01001010
          464 104 rmoveto
          4 vlineto
          25 37 15 41 10 31 rrcurveto
          -82 hlineto
          -7 -18 -9 -19 -10 -18 rrcurveto
          -3 hlineto
          -154 145 rlineto
          -41 38 -31 30 43 vvcurveto
          50 48 10 23 vhcurveto
          hintmask 10010010
          21 43 -9 -41 6 hvcurveto
          84 hlineto
          91 -7 -82 39 -65 hhcurveto
          -68 -87 -43 -100 -43 20 -37 24 -31 hvcurveto
          hintmask 10010100
          62 callsubr
          hintmask 00110100
          46 -43 rlineto
          116 2 hlineto
          -225 96 rmoveto
          hintmask 10010100
          -17 -26 -33 -11 -40 hhcurveto
          54 callgsubr
          endchar
        </CharString>
        <CharString name="aogonek">
          -82 -203 56 137 80 -49 -21 229 73 132 86 hstemhm
          38 91 166 73 21 91 hintmask 10111111
          368 -100 rmoveto
          25 callsubr
          323 vlineto
          98 -63 99 -146 -74 -61 -17 -21 -48 vhcurveto
          -85 vlineto
          18 35 55 19 77 hhcurveto
          90 44 -35 -89 hvcurveto
          -8 -121 vlineto
          -156 -74 -68 -94 hvcurveto
          hintmask 11011111
          -94 76 -56 87 96 56 38 38 36 vhcurveto
          hintmask 10111111
          -66 13 vlineto
          -54 -22 -53 -33 -64 vvcurveto
          -53 45 -31 48 40 29 12 15 22 vhcurveto
          47 vlineto
          -8 -14 -19 -10 -27 hhcurveto
          48 callsubr
          21 245 rmoveto
          hintmask 11011111
          -93 callsubr
          endchar
        </CharString>
        <CharString name="aogonek.alt">
          -6 -203 56 137 -66 callsubr
          hstemhm
          48 91 228 73 21 91 hintmask 10101111
          440 -100 rmoveto
          25 callsubr
          510 -80 vlineto
          -11 -64 rlineto
          -3 hlineto
          hintmask 11010111
          48 -46 -52 26 -70 hhcurveto
          -121 -121 -95 -170 -170 121 -95 121 70 52 26 48 46 hvcurveto
          3 hlineto
          hintmask 10110111
          11 -64 -17 callsubr
          -54 -22 -53 -33 -64 vvcurveto
          -53 45 -31 48 40 29 12 15 22 vhcurveto
          47 vlineto
          -8 -14 -19 -10 -27 hhcurveto
          48 callsubr
          hintmask 11010111
          -137 175 rmoveto
          -95 -69 62 118 118 69 62 95 65 54 -32 -43 39 hvcurveto
          -210 vlineto
          -43 -39 -54 -32 -65 hhcurveto
          endchar
        </CharString>
        <CharString name="aogonek.smcp">
          -63 82 callgsubr
          139 79 332 -20 hstem
          379 73 vstem
          452 -100 rmoveto
          20 callsubr
          -234 550 rcurveline
          -86 hlineto
          -234 -550 rlineto
          97 hlineto
          56 139 rlineto
          248 hlineto
          56 -139 rlineto
          19 hlineto
          -54 -22 -53 -33 -64 vvcurveto
          -53 45 -31 48 40 29 12 15 22 vhcurveto
          47 vlineto
          -8 -14 -19 -10 -27 hhcurveto
          48 callsubr
          -74 318 rmoveto
          -182 4 hlineto
          90 222 -17 callsubr
          90 -222 rlineto
          endchar
        </CharString>
        <CharString name="approxequal">
          38 126 65 11 65 44 65 10 65 hstem
          545 259 rmoveto
          -40 -8 -21 -28 -47 -77 -82 76 -101 hhcurveto
          -62 -50 -39 -81 -19 hvcurveto
          55 -13 rlineto
          40 8 21 28 47 77 82 -76 101 hhcurveto
          62 50 39 81 19 hvcurveto
          -55 197 rmoveto
          -39 -8 -21 -28 -47 -77 -82 75 -101 hhcurveto
          -62 -50 -39 -80 -19 hvcurveto
          55 -13 rlineto
          39 8 21 28 47 77 82 -75 101 hhcurveto
          62 50 39 80 19 hvcurveto
          endchar
        </CharString>
        <CharString name="aring">
          -68 callgsubr
          31 45 98 45 hstemhm
          38 91 46 45 98 45 26 91 hintmask 1011111111000000
          271 520 rmoveto
          -74 -61 -17 -21 -48 hvcurveto
          -82 6 vlineto
          17 35 53 17 73 hhcurveto
          90 44 -35 -89 hvcurveto
          -8 -121 vlineto
          -156 -74 -68 -94 -94 76 -56 87 94 55 37 37 36 hvcurveto
          3 hlineto
          hintmask 0111111111000000
          -91 callgsubr
          hintmask 1011111111000000
          -93 callsubr
          -120 510 -85 callgsubr
          endchar
        </CharString>
        <CharString name="aring.alt">
          -6 -10 -66 callsubr
          61 45 98 45 hstemhm
          48 91 75 45 98 45 59 91 hintmask 1010111111000000
          290 520 rmoveto
          -121 -121 -95 -170 -170 121 -95 121 70 52 26 48 46 hvcurveto
          3 hlineto
          hintmask 0101111111000000
          -78 callsubr
          hintmask 1010111111000000
          -102 callsubr
          5 664 -85 callgsubr
          endchar
        </CharString>
        <CharString name="aring.smcp">
          -27 callsubr
          377 45 98 45 hstem
          193 45 98 45 vstem
          287 783 -85 callgsubr
          43 -90 -104 callgsubr
          endchar
        </CharString>
        <CharString name="asciicircum">
          -113 447 -21 272 -20 hstem
          378 426 rmoveto
          81 hlineto
          -147 272 rlineto
          -100 hlineto
          -147 -272 rlineto
          80 hlineto
          115 185 -17 callsubr
          endchar
        </CharString>
        <CharString name="asciitilde">
          1 206 85 -9 85 hstemhm
          hintmask 10000000
          521 359 rmoveto
          -40 -8 -20 -28 -45 hhcurveto
          hintmask 01000000
          -73 -67 76 -107 hhcurveto
          -66 -53 -50 -102 -11 hvcurveto
          50 hlineto
          39 8 20 28 45 hhcurveto
          hintmask 10000000
          73 67 -76 106 hhcurveto
          67 52 50 103 12 hvcurveto
          -50 hlineto
          endchar
        </CharString>
        <CharString name="asterisk">
          -220 408 -21 311 -20 hstem
          326 436 rmoveto
          34 58 -123 49 123 48 -34 59 -104 -83 20 131 rlineto
          -67 hlineto
          19 -131 -103 83 -34 -59 123 -48 -123 -49 34 -58 103 82 -19 -131 rlineto
          67 hlineto
          -20 131 rlineto
          endchar
        </CharString>
        <CharString name="at">
          261 -83 52 125 48 -48 69 279 71 122 53 hstemhm
          49 52 120 77 502 54 hintmask 11011111
          473 688 rmoveto
          -231 -193 -197 -229 -181 137 -164 214 100 76 25 29 56 hvcurveto
          10 60 rlineto
          -36 -69 -76 -26 -97 hhcurveto
          -194 -105 149 144 202 170 171 202 159 168 -100 -193 -120 -45 -80 -84 -36 -14 31 34 24 5 24 2 16 hvcurveto
          41 234 rlineto
          -75 hlineto
          -8 -43 rlineto
          24 -25 -42 27 -61 hhcurveto
          -119 -118 -87 -156 -100 60 -76 110 62 60 23 52 43 hvcurveto
          -35 7 33 -39 72 hhcurveto
          135 51 130 117 205 -175 140 -206 1 hvcurveto
          86 -385 rmoveto
          hintmask 10111111
          -112 -19 -63 -28 -64 hhcurveto
          -63 -52 35 82 106 80 56 84 54 36 -22 -24 23 hvcurveto
          endchar
        </CharString>
        <CharString name="atilde">
          -68 callgsubr
          53 69 -21 21 -21 68 -73 callgsubr
          454 vmoveto
          -25 -5 -11 -16 -26 hhcurveto
          hintmask 1011001110000000
          -103 callsubr
          hhcurveto
          hintmask 1011100110000000
          -96 callsubr
          endchar
        </CharString>
        <CharString name="atilde.alt">
          -6 -10 -66 callsubr
          83 69 -21 21 -21 68 -71 callgsubr
          132 608 -74 callgsubr
          hintmask 1010001110000000
          -103 callsubr
          hhcurveto
          hintmask 1010100110000000
          -96 callsubr
          endchar
        </CharString>
        <CharString name="atilde.smcp">
          -27 callsubr
          431 68 -47 -21 hstemhm
          hintmask 11010000
          407 711 -74 callgsubr
          hintmask 11100000
          -37 callgsubr
          -122 -161 -104 callgsubr
          endchar
        </CharString>
        <CharString name="b">
          -6 79 callsubr
          210 -20 hstemhm
          79 49 callgsubr
          hintmask 01111100
          341 44 callsubr
          -730 80 hlineto
          11 64 rlineto
          3 hlineto
          hintmask 10111100
          -75 callsubr
          endchar
        </CharString>
        <CharString name="b.smcp">
          -60 0 77 165 76 156 76 hstemhm
          89 87 229 87 -58 58 -58 87 hintmask 11111000
          409 285 rmoveto
          1 vlineto
          45 15 38 37 65 vvcurveto
          86 -63 61 -116 vhcurveto
          -224 -550 228 hlineto
          hintmask 11110010
          126 78 48 106 68 -51 49 -61 14 hvcurveto
          -233 189 rmoveto
          129 hlineto
          hintmask 11111000
          62 38 -29 -45 -53 -33 -29 -81 hvcurveto
          -115 hlineto
          132 -241 rmoveto
          -132 165 133 hlineto
          hintmask 11110100
          91 34 -32 -50 -52 -33 -31 -93 hvcurveto
          endchar
        </CharString>
        <CharString name="backslash">
          -194 -64 -21 836 -20 hstem
          35 751 rmoveto
          286 -836 rlineto
          86 hlineto
          -286 836 rlineto
          endchar
        </CharString>
        <CharString name="bar">
          -384 -170 -21 927 -20 hstem
          86 81 vstem
          167 736 rmoveto
          -81 -927 81 hlineto
          endchar
        </CharString>
        <CharString name="braceleft">
          -293 -145 70 764 70 hstemhm
          129 78 -78 182 hintmask 11100000
          207 425 rmoveto
          222 vlineto
          17 2 25 57 vhcurveto
          hintmask 11010000
          45 70 -42 hlineto
          -80 -60 -22 -98 hvcurveto
          -211 vlineto
          -36 -4 -37 -111 -11 vhcurveto
          -74 vlineto
          111 -11 4 -37 -36 vvcurveto
          -211 vlineto
          -98 60 -22 80 vhcurveto
          42 70 -45 hlineto
          hintmask 11100000
          -57 -2 25 17 hvcurveto
          222 vlineto
          59 -32 37 -58 21 vhcurveto
          1 vlineto
          58 21 32 37 60 vvcurveto
          endchar
        </CharString>
        <CharString name="braceright">
          -293 -145 70 764 70 hstemhm
          33 182 -78 78 hintmask 11010000
          137 425 rmoveto
          -60 32 -37 58 -21 vhcurveto
          -1 vlineto
          -58 -21 -32 -37 -59 vvcurveto
          -222 vlineto
          -17 -2 -25 -57 vhcurveto
          hintmask 11100000
          -45 -70 42 hlineto
          80 60 22 98 hvcurveto
          211 vlineto
          36 4 37 111 11 vhcurveto
          74 vlineto
          -111 11 -4 37 36 vvcurveto
          211 vlineto
          98 -60 22 -80 vhcurveto
          -42 -70 45 hlineto
          hintmask 11010000
          57 2 -25 -17 hvcurveto
          endchar
        </CharString>
        <CharString name="bracketleft">
          -315 -132 71 721 72 hstemhm
          87 79 -79 201 hintmask 11010000
          288 660 rmoveto
          72 -201 -864 201 71 vlineto
          hintmask 11100000
          -122 721 hlineto
          endchar
        </CharString>
        <CharString name="bracketright">
          -315 -132 71 721 72 hstemhm
          34 201 -79 79 hintmask 11010000
          156 660 rmoveto
          -721 vlineto
          hintmask 11100000
          -122 -71 201 864 -201 -72 hlineto
          endchar
        </CharString>
        <CharString name="breve">
          -252 576 -1 callgsubr
          hintmask 01000000
          275 692 rmoveto
          hintmask 10000000
          -69 callsubr
          hintmask 01000000
          -103 callgsubr
          endchar
        </CharString>
        <CharString name="breve.cap">
          -252 748 -1 callgsubr
          hintmask 01000000
          275 864 rmoveto
          hintmask 10000000
          -69 callsubr
          hintmask 01000000
          -103 callgsubr
          endchar
        </CharString>
        <CharString name="bullet">
          -260 281 -21 266 -20 hstem
          189 526 rmoveto
          -74 -59 -59 -74 -74 59 -59 74 73 59 59 74 74 -59 59 -73 hvcurveto
          endchar
        </CharString>
        <CharString name="c">
          -101 -10 94 callgsubr
          hstem
          46 91 -83 callsubr
          endchar
        </CharString>
        <CharString name="c.smcp">
          80 callsubr
          hstem
          56 87 vstem
          517 132 -80 callgsubr
        </CharString>
        <CharString name="c_b">
          526 -10 33 callgsubr
          170 49 callgsubr
          hintmask 10111111
          873 44 callsubr
          hlineto
          -40 92 callgsubr
          -112 -27 7 -24 13 -21 hvcurveto
          -91 callsubr
          38 hlineto
          hintmask 01111111
          -678 80 vlineto
          11 64 rlineto
          3 hlineto
          hintmask 10111111
          -75 callsubr
          endchar
        </CharString>
        <CharString name="c_h">
          504 -10 33 callgsubr
          170 52 callsubr
          hintmask 10111111
          888 -7 callsubr
          -131 hlineto
          -85 -115 -35 -112 -27 7 -24 13 -21 hvcurveto
          -91 callsubr
          38 hlineto
          hintmask 01111111
          -678 91 340 vlineto
          -86 callgsubr
          vhcurveto
          endchar
        </CharString>
        <CharString name="c_k">
          441 -10 -66 callsubr
          188 52 hstemhm
          46 91 234 70 170 91 hintmask 10011111
          841 305 rmoveto
          -55 callsubr
          -91 hlineto
          -40 92 callgsubr
          -112 -27 7 -24 13 -21 hvcurveto
          hintmask 10101111
          -91 callsubr
          38 hlineto
          hintmask 01101111
          -678 91 167 vlineto
          74 74 rlineto
          3 hlineto
          180 -241 rlineto
          112 hlineto
          endchar
        </CharString>
        <CharString name="c_kcommaaccent">
          441 -262 -21 273 -66 callsubr
          188 52 hstemhm
          46 91 234 70 170 91 72 95 -48 48 hintmask 1100111111000000
          841 305 rmoveto
          -55 callsubr
          -91 hlineto
          -40 92 callgsubr
          -112 -27 7 -24 13 -21 hvcurveto
          hintmask 1101011111000000
          -91 callsubr
          38 hlineto
          hintmask 1011011111000000
          -678 91 167 vlineto
          74 74 rlineto
          3 hlineto
          180 -241 rlineto
          112 hlineto
          -297 86 callgsubr
          hintmask 1101011110100000
          47 hlineto
          hintmask 1101011111000000
          -100 callgsubr
          endchar
        </CharString>
        <CharString name="c_l">
          160 -10 33 callgsubr
          178 91 hintmask 10111110
          371 583 rmoveto
          -27 7 -24 13 -21 vhcurveto
          -91 callsubr
          46 hlineto
          hintmask 01111110
          72 callgsubr
          endchar
        </CharString>
        <CharString name="c_lcommaaccent">
          160 -17 callgsubr
          43 0 33 callgsubr
          178 91 -46 46 hintmask 1010111110000000
          371 583 rmoveto
          -27 7 -24 13 -21 vhcurveto
          -91 callsubr
          46 hlineto
          hintmask 1101111110000000
          72 callgsubr
          246 -636 rmoveto
          -94 vlineto
          hintmask 1101111101000000
          47 hlineto
          -100 callgsubr
          endchar
        </CharString>
        <CharString name="c_t">
          277 -10 94 callgsubr
          -10 -20 216 69 hstemhm
          46 91 232 48 225 93 callgsubr
          hintmask 10111101
          878 70 callgsubr
          hintmask 10111110
          60 callgsubr
          hintmask 11011110
          7 -25 -28 3 -30 -56 callgsubr
          -167 125 -98 142 70 54 20 29 49 hvcurveto
          -60 callsubr
          87 hlineto
          -38 21 -31 40 58 vvcurveto
          75 51 40 61 87 26 -61 -55 vhcurveto
          hintmask 10111110
          -80 -95 -78 -31 callsubr
          hintmask 11011101
          35 30 9 13 25 hvcurveto
          74 -7 vlineto
          -8 -20 -24 -8 -29 hhcurveto
          hintmask 11011110
          -10 callgsubr
          endchar
        </CharString>
        <CharString name="cacute">
          -101 -10 94 callgsubr
          191 -20 hstem
          46 91 -83 callsubr
          -2 276 rmoveto
          -76 -133 rlineto
          62 hlineto
          113 133 rlineto
          endchar
        </CharString>
        <CharString name="cacute.smcp">
          80 callsubr
          187 -20 hstem
          56 87 vstem
          344 745 rmoveto
          -76 -133 rlineto
          62 hlineto
          113 133 rlineto
          74 -613 -80 callgsubr
        </CharString>
        <CharString name="caron">
          -246 599 -21 123 -20 hstem
          357 701 rmoveto
          -79 hlineto
          -75 -73 -75 73 rlineto
          -79 hlineto
          113 -123 rlineto
          82 hlineto
          endchar
        </CharString>
        <CharString name="caron.cap">
          -246 771 -21 123 -20 hstem
          357 873 rmoveto
          -79 hlineto
          -75 -73 -75 73 rlineto
          -79 hlineto
          113 -123 rlineto
          82 hlineto
          endchar
        </CharString>
        <CharString name="ccaron">
          -101 -10 94 callgsubr
          181 -20 hstem
          46 91 -83 callsubr
          127 266 rmoveto
          -79 hlineto
          -75 -73 -75 73 rlineto
          -79 hlineto
          113 -123 rlineto
          82 hlineto
          endchar
        </CharString>
        <CharString name="ccaron.smcp">
          80 callsubr
          177 -20 hstem
          56 87 vstem
          475 735 rmoveto
          -79 hlineto
          -75 -73 -75 73 rlineto
          -79 hlineto
          113 -123 rlineto
          82 hlineto
          155 -480 -80 callgsubr
        </CharString>
        <CharString name="ccedilla">
          -100 0 callgsubr
          49 94 callgsubr
          hstem
          47 91 191 67 vstem
          -39 callgsubr
          86 hlineto
          29 -49 -54 20 -70 -56 callgsubr
          -151 102 -95 125 -16 hvcurveto
          -56 -90 -84 callsubr
        </CharString>
        <CharString name="ccedilla.smcp">
          -57 0 callgsubr
          51 85 397 84 hstem
          57 87 205 67 vstem
          339 -59 rmoveto
          -12 -10 -1 -3 -12 hvcurveto
          31 55 69 1 66 22 51 31 rlinecurve
          86 -4 vlineto
          -32 -50 -61 -23 -68 hhcurveto
          -128 -67 86 112 113 67 86 128 68 61 -24 -31 50 hvcurveto
          4 86 hlineto
          30 -52 -67 23 -70 hhcurveto
          -157 -119 -107 -176 -161 100 -104 138 -15 hvcurveto
          -57 -92 -84 callsubr
        </CharString>
        <CharString name="ccedilla_b">
          527 0 callgsubr
          49 24 callsubr
          47 91 192 67 -25 70 170 49 callgsubr
          hintmask 1110111011100000
          320 -44 callgsubr
          69 1 53 19 49 29 rlinecurve
          -79 callsubr
          38 hlineto
          hintmask 1101111101100000
          -678 80 vlineto
          11 64 rlineto
          3 hlineto
          hintmask 1110111011100000
          -48 46 52 -26 70 hhcurveto
          121 121 95 170 170 -121 95 -121 9 callsubr
          -8 callgsubr
          -152 103 -94 33 callsubr
          hintmask 1110111101100000
          -92 callgsubr
          541 22 callsubr
        </CharString>
        <CharString name="ccedilla_h">
          505 0 callgsubr
          49 24 callsubr
          47 91 191 67 -24 70 170 52 callsubr
          hintmask 1110111011100000
          -39 callgsubr
          86 hlineto
          -26 29 -19 37 44 vvcurveto
          84 82 13 50 vhcurveto
          38 hlineto
          hintmask 1101111011100000
          -678 91 340 vlineto
          -86 callgsubr
          -89 -52 -43 -46 -42 vhcurveto
          -3 299 -8 callgsubr
          -151 102 -95 33 callsubr
          hintmask 1110111101100000
          -92 callgsubr
          endchar
        </CharString>
        <CharString name="ccedilla_k">
          442 0 callgsubr
          59 75 360 85 -10 -20 188 52 hstemhm
          47 91 192 67 -25 70 170 91 hintmask 1111011011000000
          320 -44 callgsubr
          69 1 53 19 49 29 rlinecurve
          -79 callsubr
          38 -678 -50 callsubr
          -230 305 rlineto
          hintmask 1110111011000000
          -55 callsubr
          -131 92 callgsubr
          -112 -27 7 -24 13 -21 hvcurveto
          hintmask 1111011101000000
          19 callgsubr
          -152 103 -94 125 -16 hvcurveto
          -56 -90 -84 callsubr
        </CharString>
        <CharString name="ccedilla_l">
          161 0 callgsubr
          59 75 360 85 158 52 hstemhm
          47 91 192 67 -25 70 178 91 hintmask 1111110110000000
          320 -44 callgsubr
          69 1 53 19 49 29 rlinecurve
          -79 callsubr
          46 -678 91 730 -139 92 callgsubr
          -112 -27 7 -24 13 -21 hvcurveto
          19 callgsubr
          -152 103 -94 33 callsubr
          hintmask 1111111010000000
          -92 callgsubr
          endchar
        </CharString>
        <CharString name="ccedilla_t">
          278 0 callgsubr
          49 94 callgsubr
          -10 -20 216 69 hstemhm
          47 91 191 67 -26 48 225 93 callgsubr
          hintmask 1111011011000000
          -39 callgsubr
          87 hlineto
          -38 21 -31 40 58 vvcurveto
          75 51 40 61 87 26 -61 -55 vhcurveto
          hintmask 1110111101000000
          -80 -95 -78 -31 callsubr
          hintmask 1111011100100000
          35 30 9 13 25 hvcurveto
          74 -7 vlineto
          -8 -20 -24 -8 -29 hhcurveto
          hintmask 1111011101000000
          -10 callgsubr
          hintmask 1110111100100000
          145 78 hlineto
          hintmask 1110111011000000
          60 callgsubr
          hintmask 1111011101000000
          7 -25 -28 3 -30 -56 callgsubr
          -151 102 -95 125 -16 hvcurveto
          -56 -90 -84 callsubr
        </CharString>
        <CharString name="ccircumflex">
          -101 -10 94 callgsubr
          181 -20 hstem
          46 91 -83 callsubr
          17 266 -106 callgsubr
          endchar
        </CharString>
        <CharString name="ccircumflex.smcp">
          80 callsubr
          177 -20 hstem
          56 87 vstem
          363 735 -106 callgsubr
          41 -480 -80 callgsubr
        </CharString>
        <CharString name="cdotaccent">
          -101 -10 94 callgsubr
          58 96 hstem
          46 91 116 96 -83 callsubr
          -68 143 -30 callsubr
          endchar
        </CharString>
        <CharString name="cdotaccent.smcp">
          80 callsubr
          54 96 hstem
          56 87 133 96 vstem
          276 612 -30 callsubr
          241 -480 -80 callgsubr
        </CharString>
        <CharString name="cedilla">
          -330 0 callgsubr
          76 -20 hstem
          190 67 vstem
          180 -59 rmoveto
          -12 -10 -1 -3 -12 hvcurveto
          46 80 rlineto
          -42 hlineto
          -71 -114 -84 callsubr
        </CharString>
        <CharString name="cent">
          -86 -97 -21 108 94 callgsubr
          95 -20 hstem
          44 91 vstem
          480 385 rmoveto
          4 86 hlineto
          -21 12 -22 11 -23 8 38 113 rcurveline
          -59 hlineto
          -34 -99 rlineto
          2 -16 -18 2 -18 -56 callgsubr
          -118 62 -83 86 -39 hvcurveto
          -46 -133 rlineto
          59 hlineto
          40 115 rlineto
          -5 21 22 -2 23 hhcurveto
          70 54 20 29 49 hvcurveto
          86 -4 vlineto
          -27 -40 -54 -23 -67 hhcurveto
          -17 -15 1 3 -14 hvcurveto
          118 346 35 -9 29 -15 25 -16 rlinecurve
          -260 -288 rmoveto
          -55 30 -30 56 72 vvcurveto
          107 68 73 116 vhcurveto
          5 6 -1 5 hhcurveto
          endchar
        </CharString>
        <CharString name="cent.alt">
          -102 -97 -21 108 94 callgsubr
          95 -20 hstem
          35 91 vstem
          310 435 rmoveto
          -42 callsubr
          86 hlineto
          -21 12 -21 11 -24 8 38 113 rcurveline
          -59 hlineto
          -34 -99 rlineto
          2 -16 -18 2 -18 -56 callgsubr
          -118 62 -83 86 -39 hvcurveto
          -46 -133 rlineto
          59 hlineto
          40 115 rlineto
          -5 21 22 -2 23 hhcurveto
          70 54 20 29 49 hvcurveto
          -88 callsubr
          hvcurveto
          endchar
        </CharString>
        <CharString name="cent.inferior">
          -230 58 callsubr
          38 60 vstem
          292 35 -47 callgsubr
        </CharString>
        <CharString name="cent.superior">
          403 58 callsubr
          55 60 vstem
          309 668 -47 callgsubr
        </CharString>
        <CharString name="centigrade">
          390 -10 87 357 52 135 87 -52 52 hstemhm
          29 52 170 52 70 91 hintmask 11011110
          166 -7 callgsubr
          55 callgsubr
          hvcurveto
          hintmask 11101110
          566 135 -90 callgsubr
          endchar
        </CharString>
        <CharString name="centinferior.alt">
          -305 -230 58 callsubr
          30 60 vstem
          185 63 -36 callgsubr
        </CharString>
        <CharString name="centsuperior.alt">
          -270 403 58 callsubr
          54 60 vstem
          209 696 -36 callgsubr
        </CharString>
        <CharString name="circumflex">
          -228 599 -21 123 -20 hstem
          244 701 -106 callgsubr
          endchar
        </CharString>
        <CharString name="circumflex.cap">
          -228 771 -21 123 -20 hstem
          244 873 -106 callgsubr
          endchar
        </CharString>
        <CharString name="colon">
          -377 0 112 286 89 callgsubr
          398 rmoveto
          47 callsubr
          -510 vmoveto
          47 callsubr
          endchar
        </CharString>
        <CharString name="colonmonetary">
          55 -84 -21 95 87 544 87 -87 182 hstemhm
          44 91 hintmask 11011000
          627 553 rmoveto
          4 90 hlineto
          -16 10 -17 9 -19 8 45 133 rcurveline
          -47 hlineto
          -40 -117 -21 7 -23 5 -24 4 rlinecurve
          34 101 rlineto
          -47 hlineto
          -33 -96 rlineto
          hintmask 11101000
          1 -9 -10 0 -10 hhcurveto
          -199 -151 -136 -223 -141 61 -106 95 -59 hvcurveto
          -50 -148 rlineto
          48 hlineto
          42 126 21 -9 22 -7 23 -5 rlinecurve
          -35 -105 rlineto
          48 hlineto
          32 97 rlineto
          -1 14 15 -1 14 hhcurveto
          91 83 27 38 63 hvcurveto
          90 -5 vlineto
          -41 -63 -71 -27 -89 hhcurveto
          -8 -7 0 1 -8 hvcurveto
          173 514 26 -10 25 -13 23 -16 rlinecurve
          -398 -422 rmoveto
          -62 49 -32 78 91 vvcurveto
          152 88 116 171 4 vhcurveto
          -59 -537 rmoveto
          -25 5 -22 7 -19 10 172 513 rcurveline
          25 -2 23 -4 22 -6 rrcurveto
          endchar
        </CharString>
        <CharString name="comma">
          -5 callgsubr
        </CharString>
        <CharString name="comma.inferior">
          -437 -264 -21 175 -20 hstem
          64 70 vstem
          64 -110 51 callgsubr
        </CharString>
        <CharString name="comma.superior">
          -437 369 -21 175 -20 hstem
          72 70 vstem
          72 523 51 callgsubr
        </CharString>
        <CharString name="commaaccent">
          -337 -17 callgsubr
          -20 hstemhm
          103 95 -48 48 hintmask 11100000
          103 86 callgsubr
          hintmask 11010000
          47 hlineto
          hintmask 11100000
          -100 callgsubr
          endchar
        </CharString>
        <CharString name="copyright">
          182 -10 52 103 61 -61 138 132 138 -61 61 103 52 hstemhm
          51 52 120 67 427 52 hintmask 1100111110000000
          -67 callsubr
          7 164 rmoveto
          -84 -42 67 76 76 42 67 84 hvcurveto
          hintmask 1011011110000000
          58 38 -32 -45 18 hvcurveto
          67 hlineto
          86 -23 -66 52 -92 hhcurveto
          -114 -79 -80 -124 -124 79 -80 114 92 66 53 85 23 hvcurveto
          -67 hlineto
          hintmask 1101011110000000
          -45 -18 -38 -32 -58 hhcurveto
          endchar
        </CharString>
        <CharString name="currency">
          31 106 -21 27 82 311 81 27 -20 hstem
          97 81 312 81 vstem
          571 349 rmoveto
          52 -17 48 -28 40 vhcurveto
          72 72 -52 52 -73 -72 rlineto
          28 -39 -48 17 -52 hhcurveto
          -52 -48 -17 -28 -39 hvcurveto
          -73 72 -52 -52 72 -72 rlineto
          -28 -40 -17 -48 -52 vvcurveto
          -52 17 -48 28 -39 vhcurveto
          -72 -73 52 -52 73 73 rlineto
          -29 39 48 -17 52 hhcurveto
          52 48 17 29 39 hvcurveto
          73 -73 52 52 -72 73 rlineto
          28 39 17 48 52 vvcurveto
          -237 -155 rmoveto
          -86 -70 69 86 86 70 70 86 86 70 -70 -86 -86 -70 -69 -86 hvcurveto
          endchar
        </CharString>
        <CharString name="d">
          -6 79 callsubr
          210 36 callgsubr
          hintmask 10111100
          290 520 rmoveto
          -121 -121 -95 -170 -170 121 -95 121 70 52 26 48 46 hvcurveto
          3 hlineto
          hintmask 01111100
          69 callsubr
          hintmask 10111100
          13 -445 rmoveto
          -95 -69 62 118 118 69 62 95 65 54 -32 -43 39 hvcurveto
          -210 vlineto
          -43 -39 -54 -32 -65 hhcurveto
          endchar
        </CharString>
        <CharString name="d.smcp">
          -18 0 77 396 77 hstem
          89 88 299 88 vstem
          286 550 rmoveto
          -197 -550 -22 callgsubr
          396 101 hlineto
          121 77 -80 -118 -117 -77 -81 -121 hvcurveto
          endchar
        </CharString>
        <CharString name="dagger">
          -132 -72 -21 516 64 186 -20 hstem
          226 52 vstem
          437 487 rmoveto
          -80 hlineto
          -85 -14 13 85 rlineto
          81 vlineto
          -20 34 rlineto
          -25 hlineto
          -20 -34 rlineto
          -81 vlineto
          13 -85 -85 14 rlineto
          -80 hlineto
          -33 -19 rlineto
          -27 vlineto
          34 -18 rlineto
          79 hlineto
          85 13 -13 -85 13 -410 7 -34 rlineto
          25 hlineto
          7 34 13 410 -13 85 85 -13 rlineto
          79 hlineto
          34 18 rlineto
          27 vlineto
          endchar
        </CharString>
        <CharString name="daggerdbl">
          -106 -72 -21 186 64 266 64 186 -20 hstem
          233 65 vstem
          449 423 rmoveto
          34 18 rlineto
          27 vlineto
          -33 19 rlineto
          -80 hlineto
          -85 -14 13 85 rlineto
          81 vlineto
          -20 34 rlineto
          -25 hlineto
          -20 -34 rlineto
          -81 vlineto
          13 -85 -85 14 rlineto
          -80 hlineto
          -33 -19 rlineto
          -27 vlineto
          34 -18 rlineto
          79 hlineto
          85 13 -16 -146 16 -146 -85 13 rlineto
          -79 hlineto
          -34 -18 rlineto
          -27 vlineto
          33 -19 rlineto
          80 hlineto
          85 14 -13 -85 rlineto
          -81 vlineto
          20 -34 rlineto
          25 hlineto
          20 34 rlineto
          81 vlineto
          -13 85 85 -14 rlineto
          80 hlineto
          33 19 rlineto
          27 vlineto
          -34 18 rlineto
          -79 hlineto
          -85 -13 15 146 -15 146 85 -13 rlineto
          79 hlineto
          endchar
        </CharString>
        <CharString name="dcaron">
          12 79 callsubr
          210 36 callgsubr
          59 95 -48 48 hintmask 10111110
          290 520 rmoveto
          -121 -121 -95 -170 -170 121 -95 121 70 52 26 48 46 hvcurveto
          3 hlineto
          hintmask 01111110
          69 callsubr
          hintmask 10111110
          13 -445 rmoveto
          -95 -69 62 118 118 69 62 95 65 54 -32 -43 39 hvcurveto
          -210 vlineto
          -43 -39 -54 -32 -65 hhcurveto
          308 655 rmoveto
          -94 vlineto
          hintmask 10111101
          47 hlineto
          hintmask 10111110
          -100 callgsubr
          endchar
        </CharString>
        <CharString name="dcaron.smcp">
          -18 0 77 396 77 185 -20 hstem
          89 88 299 88 vstem
          460 735 rmoveto
          -79 hlineto
          -75 -73 -75 73 rlineto
          -79 hlineto
          113 -123 rlineto
          82 hlineto
          -61 -62 rmoveto
          -197 -550 -22 callgsubr
          396 101 hlineto
          121 77 -80 -118 -117 -77 -81 -121 hvcurveto
          endchar
        </CharString>
        <CharString name="dcroat">
          -6 79 callsubr
          67 67 76 36 callgsubr
          hintmask 10111110
          324 587 rmoveto
          137 -141 -3 hlineto
          48 -46 -52 26 -70 hhcurveto
          -121 -121 -95 -170 -170 121 -95 121 70 52 26 48 46 hvcurveto
          3 hlineto
          hintmask 01111110
          11 -64 rlineto
          80 587 77 67 -77 76 -91 -76 -137 hlineto
          hintmask 10111110
          -21 -579 rmoveto
          -95 -69 62 118 118 69 62 95 65 54 -32 -43 39 hvcurveto
          -210 vlineto
          -43 -39 -54 -32 -65 hhcurveto
          endchar
        </CharString>
        <CharString name="dcroat.smcp">
          -34 callsubr
        </CharString>
        <CharString name="degree">
          -259 434 52 170 52 hstem
          52 52 170 52 vstem
          189 -7 callgsubr
          55 callgsubr
          hvcurveto
          endchar
        </CharString>
        <CharString name="dieresis">
          -237 578 96 hstem
          66 96 72 96 vstem
          66 578 -77 callsubr
          endchar
        </CharString>
        <CharString name="dieresis.cap">
          -237 750 96 hstem
          66 96 72 96 vstem
          66 750 -77 callsubr
          endchar
        </CharString>
        <CharString name="divide">
          75 100 92 99 81 98 92 hstem
          310 92 vstem
          78 372 rmoveto
          -81 556 81 vlineto
          -324 -272 rmoveto
          92 92 -92 hlineto
          92 370 rmoveto
          -92 -92 92 hlineto
          endchar
        </CharString>
        <CharString name="dollar">
          -25 -84 -21 95 86 549 82 96 -20 hstemhm
          54 90 145 45 -45 229 -39 90 hintmask 11111101
          569 185 rmoveto
          141 -121 34 -114 27 vhcurveto
          238 vlineto
          69 -2 59 -16 49 -20 rrcurveto
          hintmask 11111010
          7 85 hlineto
          hintmask 11111101
          69 callgsubr
          vvcurveto
          -132 122 -37 113 -30 vhcurveto
          -229 vlineto
          -107 3 -74 32 -41 23 rrcurveto
          -5 -89 hlineto
          55 -26 76 -24 96 -4 rrcurveto
          -95 45 95 vlineto
          143 8 92 79 108 vvcurveto
          -425 325 rmoveto
          66 61 39 84 8 vhcurveto
          -225 vlineto
          -79 20 -66 24 68 vvcurveto
          190 -434 rmoveto
          217 vlineto
          80 -21 65 -23 -58 vvcurveto
          -78 -61 -31 -84 -6 vhcurveto
          endchar
        </CharString>
        <CharString name="dollar.alt">
          -42 -84 -21 95 85 550 82 96 -20 hstem
          46 90 145 45 145 90 cntrmask 00001110
          561 185 rmoveto
          264 -425 -112 173 vvcurveto
          75 78 40 101 73 63 -17 -21 52 vhcurveto
          7 85 hlineto
          69 callgsubr
          -246 425 82 -148 vvcurveto
          -87 -76 -29 -99 -115 -79 34 24 -43 vhcurveto
          -5 -89 hlineto
          55 -26 76 -24 96 -4 rrcurveto
          -95 45 95 vlineto
          144 8 91 79 108 vvcurveto
          endchar
        </CharString>
        <CharString name="dollar.inferior">
          -218 -21 51 58 397 -20 hstem
          47 60 74 26 74 60 cntrmask 00011100
          341 -76 -55 callgsubr
        </CharString>
        <CharString name="dollar.oldstyle">
          -95 -84 -21 95 85 438 -20 54 81 96 -20 hstemhm
          48 87 121 45 -45 208 -42 86 hintmask 1111111010000000
          508 165 rmoveto
          124 -107 31 -100 25 vhcurveto
          202 vlineto
          59 -2 56 -14 43 -18 rrcurveto
          hintmask 1111110100000000
          5 83 hlineto
          hintmask 1111111010000000
          68 callsubr
          vvcurveto
          -118 108 -34 100 -26 vhcurveto
          -193 vlineto
          -93 3 -66 28 -36 19 rrcurveto
          -6 -86 hlineto
          48 -22 67 85 callsubr
          vvcurveto
          -373 286 rmoveto
          55 50 32 71 7 vhcurveto
          -189 vlineto
          -67 18 -54 21 56 vvcurveto
          166 -376 rmoveto
          180 vlineto
          67 -18 54 -19 -47 vvcurveto
          -66 -51 -25 -70 -5 vhcurveto
          endchar
        </CharString>
        <CharString name="dollar.oldstyle.alt">
          -95 -84 -21 95 84 439 -20 54 81 96 -20 hstem
          47 87 121 45 121 86 vstem
          134 451 rmoveto
          63 66 33 88 63 61 -15 -19 46 vhcurveto
          5 83 hlineto
          68 callsubr
          -219 374 69 -124 vvcurveto
          -74 -65 -23 -85 -101 -72 30 20 -38 vhcurveto
          -6 -86 hlineto
          49 -22 66 85 callsubr
          231 -373 -92 147 vvcurveto
          endchar
        </CharString>
        <CharString name="dollar.superior">
          416 -21 51 58 397 -20 hstem
          41 60 74 26 74 60 cntrmask 00011100
          335 558 -55 callgsubr
        </CharString>
        <CharString name="dollarinferior.alt">
          -276 -218 -21 51 57 291 56 51 -20 hstem
          38 60 74 26 74 60 cntrmask 00001110
          332 -76 -33 callgsubr
        </CharString>
        <CharString name="dollarsuperior.alt">
          -277 416 -21 51 57 291 56 51 -20 hstem
          37 60 74 26 74 60 cntrmask 00001110
          331 558 -33 callgsubr
        </CharString>
        <CharString name="dong">
          -103 35 61 60 67 0 239 0 217 -149 42 0 52 hstemhm
          64 76 211 75 hintmask 10100111
          477 624 rmoveto
          -51 hlineto
          hintmask 11010011
          55 -75 vlineto
          hintmask 10100111
          -55 -92 -52 92 -94 -2 vlineto
          hintmask 11001011
          30 -26 -38 22 -52 hhcurveto
          -81 -88 -68 -120 -119 88 -67 81 52 38 21 31 26 hvcurveto
          2 hlineto
          9 -45 rlineto
          66 409 51 hlineto
          hintmask 10100111
          -126 -297 rmoveto
          -29 -18 -31 -23 -47 hhcurveto
          -68 -47 44 75 76 47 44 68 47 31 -23 -28 18 hvcurveto
          76 -376 rmoveto
          -351 61 351 hlineto
          endchar
        </CharString>
        <CharString name="dotaccent">
          -409 578 96 hstem
          66 96 vstem
          66 578 -30 callsubr
          endchar
        </CharString>
        <CharString name="dotaccent.cap">
          -409 750 96 hstem
          66 96 vstem
          66 750 -30 callsubr
          endchar
        </CharString>
        <CharString name="dotbelowcmb">
          -637 -156 96 hstem
          -159 96 vstem
          -159 -156 -85 callsubr
          endchar
        </CharString>
        <CharString name="dotlessi">
          -380 21 -21 510 55 callsubr
          endchar
        </CharString>
        <CharString name="dotlessj">
          88 callsubr
          hstemhm
          -32 206 -91 91 hintmask 11010000
          83 -101 -11 callsubr
          hintmask 11100000
          -31 callgsubr
          613 vlineto
          hintmask 11010000
          -91 hlineto
          endchar
        </CharString>
        <CharString name="e">
          -45 callgsubr
          hstem
          49 92 295 91 vstem
          -106 callsubr
          endchar
        </CharString>
        <CharString name="e.smcp">
          -45 callsubr
          hstem
          89 87 -59 callgsubr
          endchar
        </CharString>
        <CharString name="eacute">
          -45 callgsubr
          191 -20 hstem
          49 92 295 91 vstem
          -106 callsubr
          -135 414 rmoveto
          -76 -133 rlineto
          62 hlineto
          113 133 rlineto
          endchar
        </CharString>
        <CharString name="eacute.smcp">
          -45 callsubr
          195 90 callsubr
          307 745 rmoveto
          -76 -133 rlineto
          62 hlineto
          113 133 rlineto
          70 -278 rmoveto
          83 -387 -550 387 83 -300 151 272 83 -272 150 vlineto
          endchar
        </CharString>
        <CharString name="ebreve">
          -45 callgsubr
          56 -1 callgsubr
          49 92 295 91 hintmask 11101110
          -106 callsubr
          -69 395 rmoveto
          hintmask 11110110
          -69 callsubr
          hintmask 11101110
          -103 callgsubr
          endchar
        </CharString>
        <CharString name="ebreve.smcp">
          -45 callsubr
          45 -1 callgsubr
          89 87 hintmask 11101100
          370 711 21 callgsubr
          42 -244 rmoveto
          83 -387 -550 387 83 -300 151 272 83 -272 150 vlineto
          endchar
        </CharString>
        <CharString name="ecaron">
          -45 callgsubr
          181 -20 hstem
          49 92 295 91 vstem
          -106 callsubr
          4 404 rmoveto
          -79 hlineto
          -75 -73 -75 73 rlineto
          -79 hlineto
          113 -123 rlineto
          82 hlineto
          endchar
        </CharString>
        <CharString name="ecaron.smcp">
          -45 callsubr
          185 90 callsubr
          438 735 rmoveto
          -79 hlineto
          -75 -73 -75 73 rlineto
          -79 hlineto
          113 -123 rlineto
          82 hlineto
          151 -145 rmoveto
          83 -387 -550 387 83 -300 151 272 83 -272 150 vlineto
          endchar
        </CharString>
        <CharString name="ecircumflex">
          -45 callgsubr
          181 -20 hstem
          49 92 295 91 vstem
          -26 callgsubr
          404 -106 callgsubr
          endchar
        </CharString>
        <CharString name="ecircumflex.smcp">
          -45 callsubr
          185 90 callsubr
          329 735 -106 callgsubr
          34 -145 rmoveto
          83 -387 -550 387 83 -300 151 272 83 -272 150 vlineto
          endchar
        </CharString>
        <CharString name="ecircumflexacute">
          -45 callgsubr
          181 -20 119 -20 hstem
          49 92 295 91 vstem
          -26 callgsubr
          404 -106 callgsubr
          25 222 rmoveto
          -76 -133 rlineto
          62 hlineto
          113 133 rlineto
          endchar
        </CharString>
        <CharString name="ecircumflexacute.smcp">
          -45 callsubr
          274 -20 hstem
          89 87 -59 callgsubr
          151 258 -106 callgsubr
          25 222 rmoveto
          -76 -133 rlineto
          62 hlineto
          113 133 rlineto
          endchar
        </CharString>
        <CharString name="ecircumflexdotbelow">
          -67 65 callsubr
          85 148 74 146 77 181 -20 hstem
          49 92 106 96 93 91 vstem
          -26 callgsubr
          404 -106 callgsubr
          -194 -743 -85 callsubr
          endchar
        </CharString>
        <CharString name="ecircumflexdotbelow.smcp">
          -102 -156 96 60 83 151 83 150 83 185 71 callsubr
          64 96 -59 callgsubr
          153 268 -106 callgsubr
          -202 -768 -85 callsubr
          endchar
        </CharString>
        <CharString name="ecircumflexgrave">
          -45 callgsubr
          181 -20 119 -20 hstem
          49 92 295 91 vstem
          -26 callgsubr
          404 -86 callsubr
        </CharString>
        <CharString name="ecircumflexgrave.smcp">
          -45 callsubr
          274 -20 hstem
          89 87 -59 callgsubr
          151 258 -86 callsubr
        </CharString>
        <CharString name="ecircumflexhookabove">
          -45 callgsubr
          58 224 -101 -20 hstemhm
          49 92 295 91 -32 62 hintmask 11101110
          -26 callgsubr
          404 rmoveto
          -82 hlineto
          hintmask 11110110
          -113 -123 rlineto
          79 hlineto
          75 73 75 -73 rlineto
          79 hlineto
          hintmask 11101110
          hintmask 11110101
          1 224 -107 callgsubr
          endchar
        </CharString>
        <CharString name="ecircumflexhookabove.smcp">
          -45 callsubr
          52 224 hstem
          89 87 318 62 -59 callgsubr
          151 258 -106 callgsubr
          1 224 -107 callgsubr
          endchar
        </CharString>
        <CharString name="ecircumflextilde">
          -45 callgsubr
          53 64 callgsubr
          49 92 295 91 hintmask 11110011
          -26 callgsubr
          399 -106 callgsubr
          -34 254 -74 callgsubr
          hintmask 11100111
          -103 callsubr
          hhcurveto
          hintmask 11101011
          -96 callsubr
          endchar
        </CharString>
        <CharString name="ecircumflextilde.smcp">
          -45 callsubr
          48 64 callgsubr
          89 87 hintmask 11110010
          -69 callgsubr
          151 254 -106 callgsubr
          -34 254 31 callgsubr
          hintmask 11101010
          -96 callsubr
          endchar
        </CharString>
        <CharString name="edieresis">
          -45 callgsubr
          58 96 hstem
          49 92 14 96 72 96 17 91 vstem
          -106 callsubr
          -281 281 -77 callsubr
          endchar
        </CharString>
        <CharString name="edieresis.smcp">
          -45 callsubr
          62 96 hstemhm
          89 87 -25 96 72 96 hintmask 11110110
          151 612 -77 callsubr
          157 -241 rmoveto
          83 vlineto
          hintmask 11111010
          -387 -550 72 callsubr
          endchar
        </CharString>
        <CharString name="edotaccent">
          -45 callgsubr
          58 96 hstem
          49 92 97 96 102 91 vstem
          -106 callsubr
          -198 281 -30 callsubr
          endchar
        </CharString>
        <CharString name="edotaccent.smcp">
          -45 callsubr
          62 96 hstem
          89 87 67 96 vstem
          243 612 -30 callsubr
          233 -145 rmoveto
          83 -387 -550 387 83 -300 151 272 83 -272 150 vlineto
          endchar
        </CharString>
        <CharString name="edotbelow">
          -67 65 callsubr
          85 148 74 146 77 hstem
          49 92 106 96 93 91 vstem
          -106 callsubr
          -189 -462 -85 callsubr
          endchar
        </CharString>
        <CharString name="edotbelow.smcp">
          -102 -156 96 60 83 151 83 150 83 hstem
          89 87 66 96 -59 callgsubr
          66 -623 -85 callsubr
          endchar
        </CharString>
        <CharString name="egrave">
          -45 callgsubr
          191 -20 hstem
          49 92 295 91 vstem
          -106 callsubr
          -261 414 rmoveto
          113 -133 rlineto
          62 hlineto
          -76 133 rlineto
          endchar
        </CharString>
        <CharString name="egrave.smcp">
          -45 callsubr
          195 90 callsubr
          164 745 rmoveto
          113 -133 rlineto
          62 hlineto
          -76 133 rlineto
          213 -278 rmoveto
          83 -387 -550 387 83 -300 151 272 83 -272 150 vlineto
          endchar
        </CharString>
        <CharString name="ehookabove">
          -45 callgsubr
          179 -20 68 -20 hstem
          49 92 182 62 51 91 vstem
          -106 callsubr
          -166 450 -107 callgsubr
          endchar
        </CharString>
        <CharString name="ehookabove.smcp">
          -45 callsubr
          231 71 callsubr
          139 62 -59 callgsubr
          86 314 -107 callgsubr
          endchar
        </CharString>
        <CharString name="eight">
          -9 -10 80 260 82 216 80 hstemhm
          47 91 -58 58 -58 91 286 91 -58 58 -58 91 hintmask 1110101000000000
          548 526 rmoveto
          78 -59 104 -175 -175 -59 -104 -78 -82 54 -49 62 -21 vhcurveto
          -1 vlineto
          hintmask 1111000010000000
          -89 -30 -60 -56 -102 vvcurveto
          -89 68 -106 199 199 68 106 89 102 -60 56 -89 30 vhcurveto
          1 vlineto
          hintmask 1111000100000000
          62 21 54 49 82 vvcurveto
          -234 -456 rmoveto
          -134 -42 80 45 90 84 45 92 92 84 -45 -90 -45 -42 -80 -134 hvcurveto
          hintmask 1110011000000000
          -143 450 rmoveto
          59 46 49 97 97 46 -49 -59 -46 -34 -62 -109 -109 -34 62 46 vhcurveto
          endchar
        </CharString>
        <CharString name="eight.denominator">
          -6 57 131 53 106 58 hstemhm
          32 -6 callgsubr
          hintmask 1110101000000000
          319 292 -88 callgsubr
        </CharString>
        <CharString name="eight.numerator">
          304 57 131 53 106 58 hstemhm
          33 -6 callgsubr
          hintmask 1110101000000000
          320 602 -88 callgsubr
        </CharString>
        <CharString name="eight.oldstyle">
          -63 callgsubr
        </CharString>
        <CharString name="eight.taboldstyle">
          -63 callgsubr
        </CharString>
        <CharString name="eightinferior">
          -188 57 131 53 106 58 hstemhm
          33 -6 callgsubr
          hintmask 1110101000000000
          320 110 -88 callgsubr
        </CharString>
        <CharString name="eightninths">
          11 callsubr
          hstem
          593 71 vstem
          733 710 -77 callgsubr
          437 147 -101 callgsubr
          -410 264 -72 callsubr
        </CharString>
        <CharString name="eightsuperior">
          445 57 131 53 106 58 hstemhm
          32 -6 callgsubr
          hintmask 1110101000000000
          319 743 -88 callgsubr
        </CharString>
        <CharString name="ellipsis">
          331 0 112 hstem
          74 112 242 112 242 112 cntrmask 01110000
          428 hmoveto
          47 callsubr
          354 hmoveto
          -112 112 112 vlineto
          -820 -112 rmoveto
          47 callsubr
          endchar
        </CharString>
        <CharString name="emacron">
          -45 callgsubr
          68 60 hstem
          49 92 295 91 vstem
          -106 callsubr
          -6 351 -48 callsubr
          endchar
        </CharString>
        <CharString name="emacron.smcp">
          -45 callsubr
          65 60 hstem
          89 87 vstem
          432 675 -48 callsubr
          44 -208 rmoveto
          83 -387 -550 387 83 -300 151 272 83 -272 150 vlineto
          endchar
        </CharString>
        <CharString name="emdash">
          254 240 81 hstem
          817 240 rmoveto
          81 -743 -81 vlineto
          endchar
        </CharString>
        <CharString name="endash">
          47 240 81 hstem
          610 240 rmoveto
          81 -536 -81 vlineto
          endchar
        </CharString>
        <CharString name="eng">
          -28 -240 80 181 92 callsubr
          108 callsubr
          159 206 -91 91 hintmask 11101010
          444 -101 -11 callsubr
          hintmask 11101100
          -31 callgsubr
          427 vlineto
          107 -65 89 -114 -89 -53 -43 -46 -42 vhcurveto
          -2 15 hlineto
          hintmask 11011100
          -15 callgsubr
          hintmask 11101010
          50 40 52 46 72 hhcurveto
          78 32 -46 -76 hvcurveto
          endchar
        </CharString>
        <CharString name="eng.smcp">
          27 -250 77 194 -21 550 -20 hstemhm
          89 87 201 198 -87 87 hintmask 11110100
          488 550 rmoveto
          -404 -2 vlineto
          -298 404 rlineto
          -99 -550 87 421 2 hlineto
          310 -421 rlineto
          -117 vlineto
          -52 -25 -4 -34 -18 -15 3 4 -11 vhcurveto
          hintmask 11111000
          -8 -72 hlineto
          -7 19 24 -5 29 hhcurveto
          92 34 57 74 hvcurveto
          669 vlineto
          endchar
        </CharString>
        <CharString name="eogonek">
          -66 -203 56 137 85 148 74 146 77 hstem
          49 90 140 73 85 90 vstem
          527 255 rmoveto
          135 -73 130 -166 -166 -73 -130 -135 -168 96 -97 163 18 17 1 2 15 vhcurveto
          -42 -25 -37 -37 -50 vvcurveto
          -53 45 -31 48 40 29 12 15 22 vhcurveto
          47 vlineto
          -8 -14 -19 -10 -27 hhcurveto
          -36 -15 18 29 56 91 59 54 22 60 callsubr
          -388 74 rmoveto
          104 6 79 42 64 hhcurveto
          64 79 -42 -104 6 hvcurveto
          endchar
        </CharString>
        <CharString name="eogonek.smcp">
          -101 -203 56 147 83 151 83 150 83 hstemhm
          89 87 115 73 -73 185 hintmask 11111100
          364 -100 rmoveto
          hintmask 11111010
          25 callsubr
          83 -300 151 272 83 -272 150 300 83 -387 -550 309 18 callgsubr
        </CharString>
        <CharString name="equal">
          75 180 78 146 78 hstem
          634 404 rmoveto
          78 -556 -78 vlineto
          556 -224 rmoveto
          78 -556 -78 vlineto
          endchar
        </CharString>
        <CharString name="estimated">
          238 -10 25 324 20 324 25 hstem
          51 140 501 140 cntrmask 11100000
          832 359 rmoveto
          192 -178 157 -212 -216 -175 -161 -198 -198 175 -161 216 131 116 60 91 71 vhcurveto
          -54 hlineto
          -77 -62 -95 -49 -107 hhcurveto
          -100 -89 43 67 -62 hvcurveto
          214 641 vlineto
          13 0 4 3 vvcurveto
          -140 hmoveto
          -501 214 hlineto
          68 62 89 42 100 hhcurveto
          99 89 -42 -68 62 hvcurveto
          endchar
        </CharString>
        <CharString name="eth">
          -38 -10 80 361 74 253 -20 hstem
          49 88 321 88 vstem
          362 637 rmoveto
          72 43 -26 43 -86 -52 -52 42 -49 29 -28 16 rlinecurve
          -1 -48 -69 0 hvcurveto
          35 -18 34 -21 33 -23 -85 -50 rcurveline
          25 -43 103 60 40 -34 37 -38 29 -43 rlinecurve
          -3 hlineto
          16 -31 -37 10 -41 hhcurveto
          -150 -84 -124 -133 -154 98 -104 150 179 70 130 154 156 -91 123 -93 84 hvcurveto
          -65 -567 rmoveto
          -74 -86 50 132 130 86 49 74 74 87 -49 -130 -132 -87 -50 -74 hvcurveto
          endchar
        </CharString>
        <CharString name="eth.smcp">
          -34 callsubr
        </CharString>
        <CharString name="etilde">
          -45 callgsubr
          53 -30 callgsubr
          49 92 295 91 hintmask 11101011
          -106 callsubr
          -28 386 -74 callgsubr
          hintmask 11100111
          -103 callsubr
          hhcurveto
          hintmask 11110011
          -96 callsubr
          endchar
        </CharString>
        <CharString name="etilde.smcp">
          -45 callsubr
          51 -30 callgsubr
          89 87 hintmask 11101010
          -69 callgsubr
          230 244 4 callgsubr
        </CharString>
        <CharString name="exclam">
          -356 0 112 586 -20 hstemhm
          98 84 -84 94 hintmask 11100000
          84 hmoveto
          37 callsubr
          -112 hlineto
          5 -29 callgsubr
          -146 vlineto
          19 -359 rlineto
          64 hlineto
          hintmask 11010000
          20 359 rlineto
          146 -103 vlineto
          endchar
        </CharString>
        <CharString name="exclam.smcp">
          -373 0 104 446 -20 hstem
          90 83 vstem
          165 166 rmoveto
          16 285 rlineto
          99 -98 -99 vlineto
          15 -285 rlineto
          -18 -62 rmoveto
          -104 104 104 vlineto
          endchar
        </CharString>
        <CharString name="exclamdown">
          -378 -167 -21 586 112 hstemhm
          78 93 -84 84 hintmask 11010000
          73 510 rmoveto
          -112 112 112 vlineto
          hintmask 11100000
          -107 -698 rmoveto
          103 146 hlineto
          -20 359 rlineto
          -64 hlineto
          -19 -359 rlineto
          endchar
        </CharString>
        <CharString name="exclamdown.smcp">
          -376 -19 -21 446 104 hstem
          89 83 vstem
          97 344 rmoveto
          -15 -285 rlineto
          -99 98 99 vlineto
          -16 285 rlineto
          19 62 rmoveto
          104 -104 -104 vlineto
          endchar
        </CharString>
        <CharString name="f">
          -257 9 callgsubr
          hintmask 11101000
          290 2 callgsubr
          -93 -78 93 -432 vlineto
          hintmask 11110000
          91 432 hlineto
          hintmask 11101000
          156 78 hlineto
          hintmask 11110000
          58 callgsubr
          endchar
        </CharString>
        <CharString name="f.smcp">
          -126 21 -21 234 83 150 83 hstem
          89 88 vstem
          89 550 rmoveto
          -550 88 234 264 83 -264 150 290 83 vlineto
          endchar
        </CharString>
        <CharString name="f_f">
          137 9 callgsubr
          147 91 -91 247 hintmask 11110010
          684 2 callgsubr
          -303 55 vlineto
          23 callsubr
          hintmask 11101100
          -66 callgsubr
          -93 -78 93 -432 vlineto
          hintmask 11110100
          112 callgsubr
          hlineto
          hintmask 11110010
          156 78 hlineto
          hintmask 11110100
          58 callgsubr
          endchar
        </CharString>
        <CharString name="f_f_i">
          398 21 30 callsubr
          147 91 -91 247 103 91 hintmask 1101011010000000
          290 2 callgsubr
          -93 -78 93 -432 vlineto
          hintmask 1101101010000000
          112 callgsubr
          259 -432 91 510 -350 55 hlineto
          23 callsubr
          hintmask 1101100110000000
          -66 callgsubr
          -303 55 vlineto
          71 32 17 50 vhcurveto
          hintmask 1110101010000000
          666 63 rmoveto
          -98 -98 98 hlineto
          endchar
        </CharString>
        <CharString name="f_f_l">
          401 9 callgsubr
          147 91 -91 247 102 91 hintmask 11110011
          951 740 rmoveto
          -91 -740 91 hlineto
          -267 2 callgsubr
          -303 55 vlineto
          23 callsubr
          hintmask 11101101
          -66 callgsubr
          -93 -78 93 -432 vlineto
          hintmask 11110101
          112 callgsubr
          hlineto
          hintmask 11110011
          156 78 hlineto
          hintmask 11110101
          58 callgsubr
          endchar
        </CharString>
        <CharString name="f_j">
          4 -240 80 181 30 callsubr
          -12 206 -91 91 hintmask 1111010010000000
          467 -101 -11 callsubr
          hintmask 1110110100000000
          -31 callgsubr
          613 -350 55 vlineto
          23 callsubr
          hintmask 1110101010000000
          -66 callgsubr
          -93 -78 93 -432 vlineto
          hintmask 1111010010000000
          91 432 259 hlineto
          -3 284 rmoveto
          -98 98 98 vlineto
          endchar
        </CharString>
        <CharString name="fahrenheit">
          291 21 -21 307 85 42 52 127 85 -42 42 10 -20 hstemhm
          30 52 170 52 110 91 hintmask 1110011110000000
          167 -7 callgsubr
          hvcurveto
          hintmask 1110101110000000
          55 callgsubr
          vhcurveto
          247 212 rmoveto
          -698 91 307 346 85 -346 vlineto
          hintmask 1111001110000000
          221 381 85 vlineto
          endchar
        </CharString>
        <CharString name="fi">
          4 21 30 callsubr
          103 91 hintmask 11011010
          467 hmoveto
          91 510 -350 55 hlineto
          23 callsubr
          hintmask 11010110
          -66 callgsubr
          -93 -78 93 -432 vlineto
          hintmask 11101010
          91 432 259 hlineto
          95 284 rmoveto
          -98 -98 98 hlineto
          endchar
        </CharString>
        <CharString name="five">
          -9 -10 90 275 87 171 85 hstem
          480 91 vstem
          338 442 rmoveto
          -69 -54 -17 -22 -41 hvcurveto
          -3 hlineto
          30 210 rlineto
          328 85 -404 hlineto
          -57 -366 79 -35 rlineto
          26 31 56 32 91 hhcurveto
          96 59 -52 -82 -108 -77 -33 -118 -91 -69 35 37 -47 hvcurveto
          -4 -97 hlineto
          -35 51 73 -30 99 hhcurveto
          190 84 98 128 130 -82 96 -151 hvcurveto
          endchar
        </CharString>
        <CharString name="five.denominator">
          -316 19 callsubr
          254 -102 callgsubr
          endchar
        </CharString>
        <CharString name="five.numerator">
          304 19 callsubr
          -22 callsubr
          endchar
        </CharString>
        <CharString name="five.oldstyle">
          -41 callgsubr
        </CharString>
        <CharString name="five.taboldstyle">
          -41 callgsubr
        </CharString>
        <CharString name="fiveeighths">
          303 304 76 callgsubr
          264 70 vstem
          200 -22 callsubr
          524 146 -77 callgsubr
          597 306 -72 callsubr
        </CharString>
        <CharString name="fiveinferior">
          -680 19 callsubr
          72 -102 callgsubr
          endchar
        </CharString>
        <CharString name="fiveninths">
          11 callsubr
          215 16 callgsubr
          hstemhm
          267 70 255 71 hintmask 11100001
          732 710 -77 callgsubr
          437 147 -101 callgsubr
          hintmask 00011110
          -536 226 -102 callgsubr
          endchar
        </CharString>
        <CharString name="fivesevenths">
          32 callsubr
          221 16 callgsubr
          hstemhm
          257 70 hintmask 00111100
          722 710 -77 callgsubr
          -90 578 -102 callgsubr
          hintmask 11000000
          435 -171 -75 callgsubr
          endchar
        </CharString>
        <CharString name="fivesixths">
          114 callsubr
          215 16 callgsubr
          hstemhm
          260 70 485 71 hintmask 00011110
          196 -22 callsubr
          529 146 -77 callgsubr
          hintmask 11100001
          467 274 -98 callgsubr
          endchar
        </CharString>
        <CharString name="fivesuperior">
          586 19 callsubr
          705 -102 callgsubr
          endchar
        </CharString>
        <CharString name="fl">
          7 9 callgsubr
          102 91 hintmask 11101100
          290 2 callgsubr
          -93 -78 93 -432 vlineto
          hintmask 11110100
          91 432 hlineto
          hintmask 11101100
          156 78 hlineto
          hintmask 11110100
          58 callgsubr
          267 77 rmoveto
          -91 -730 91 hlineto
          endchar
        </CharString>
        <CharString name="florin">
          -234 -156 83 438 62 236 83 hstem
          343 746 rmoveto
          -71 -86 -42 -126 -18 hvcurveto
          -21 -151 rlineto
          -109 hlineto
          -8 -62 rlineto
          108 hlineto
          -49 -350 rlineto
          -71 -10 -34 -17 -50 hhcurveto
          -27 hlineto
          -12 -83 rlineto
          50 hlineto
          71 85 42 126 18 hvcurveto
          50 353 rlineto
          147 hlineto
          9 62 rlineto
          -148 hlineto
          21 148 rlineto
          71 10 34 17 50 hhcurveto
          25 21 -5 -8 19 hvcurveto
          7 hlineto
          11 75 rlineto
          14 -23 -32 7 -38 hhcurveto
          endchar
        </CharString>
        <CharString name="four">
          -9 21 -21 176 81 441 -20 hstem
          388 91 vstem
          479 257 rmoveto
          441 -109 vlineto
          -341 -436 rlineto
          -86 359 -176 91 176 112 81 vlineto
          -203 hmoveto
          -260 2 hlineto
          258 334 -17 callsubr
          endchar
        </CharString>
        <CharString name="four.denominator">
          -289 45 callsubr
          155 rmoveto
          238 -70 vlineto
          -188 -241 rlineto
          -56 194 -96 64 96 61 59 vlineto
          -125 hmoveto
          -121 2 hlineto
          119 155 -17 callsubr
          endchar
        </CharString>
        <CharString name="four.numerator">
          331 77 callgsubr
          218 70 vstem
          281 465 rmoveto
          238 -70 vlineto
          -188 -241 rlineto
          -56 194 -96 64 96 61 59 vlineto
          -125 hmoveto
          -121 2 hlineto
          119 155 -17 callsubr
          endchar
        </CharString>
        <CharString name="four.oldstyle">
          -14 callgsubr
        </CharString>
        <CharString name="four.taboldstyle">
          -14 callgsubr
        </CharString>
        <CharString name="fourfifths">
          42 callgsubr
          248 68 callgsubr
          hstemhm
          220 70 535 70 hintmask 00011110
          283 465 rmoveto
          238 -70 vlineto
          -188 -241 rlineto
          -56 194 -96 64 96 61 59 vlineto
          -125 hmoveto
          -121 2 hlineto
          119 155 -17 callsubr
          510 88 -77 callgsubr
          hintmask 11100001
          471 268 -102 callgsubr
          endchar
        </CharString>
        <CharString name="fourinferior">
          -653 45 callsubr
          -27 rmoveto
          238 -70 vlineto
          -188 -241 rlineto
          -56 194 -96 64 96 61 59 vlineto
          -125 hmoveto
          -121 2 hlineto
          119 155 -17 callsubr
          endchar
        </CharString>
        <CharString name="fourninths">
          11 callsubr
          242 68 callgsubr
          hstemhm
          225 70 299 71 hintmask 00011110
          734 710 -77 callgsubr
          -7 479 rmoveto
          238 -70 vlineto
          -188 -241 rlineto
          -56 194 -96 64 96 61 59 vlineto
          -125 hmoveto
          -121 2 hlineto
          119 155 -17 callsubr
          hintmask 11100001
          508 -489 -101 callgsubr
          endchar
        </CharString>
        <CharString name="foursevenths">
          32 callsubr
          248 68 callgsubr
          hstemhm
          215 70 hintmask 00111100
          724 710 -77 callgsubr
          -7 479 rmoveto
          238 -70 vlineto
          -188 -241 rlineto
          -56 194 -96 64 96 61 59 vlineto
          -125 hmoveto
          -121 2 hlineto
          119 155 -17 callsubr
          hintmask 11000000
          416 -229 -75 callgsubr
          endchar
        </CharString>
        <CharString name="foursuperior">
          613 45 callsubr
          606 rmoveto
          238 -70 vlineto
          -188 -241 rlineto
          -56 194 -96 64 96 61 59 vlineto
          -125 hmoveto
          -121 2 hlineto
          119 155 -17 callsubr
          endchar
        </CharString>
        <CharString name="fraction">
          -437 7 -21 724 -20 hstem
          359 710 -77 callgsubr
          endchar
        </CharString>
        <CharString name="frenchfranc">
          1 21 -21 151 45 111 85 221 85 hstem
          132 91 vstem
          594 51 callsubr
          -462 -502 -86 -45 86 -151 91 151 198 45 -198 111 336 85 -336 221 vlineto
          endchar
        </CharString>
        <CharString name="g">
          27 callsubr
          hstemhm
          48 91 322 91 hintmask 11011100
          41 callsubr
          hintmask 11101100
          -70 callgsubr
          5 callgsubr
          hintmask 11011100
          -27 callgsubr
          hintmask 11101100
          16 callsubr
          endchar
        </CharString>
        <CharString name="g.smcp">
          57 callsubr
          74 callsubr
          hintmask 11111000
          326 234 rmoveto
          hintmask 11110100
          -82 callsubr
          250 vlineto
          hintmask 11111000
          -219 hlineto
          endchar
        </CharString>
        <CharString name="gbreve">
          27 callsubr
          86 -1 callgsubr
          48 49 callgsubr
          hintmask 11011011
          41 callsubr
          hintmask 11101011
          -70 callgsubr
          5 callgsubr
          hintmask 11011011
          -27 callgsubr
          hintmask 11100111
          16 callsubr
          -63 329 rmoveto
          hintmask 11101011
          -69 callsubr
          hintmask 11100111
          -103 callgsubr
          endchar
        </CharString>
        <CharString name="gbreve.smcp">
          57 callsubr
          43 58 -58 116 74 callsubr
          hintmask 11101110
          406 717 rmoveto
          hintmask 11110110
          -69 callsubr
          hintmask 11101110
          -103 callgsubr
          -144 -483 rmoveto
          hintmask 11110101
          -82 callsubr
          250 vlineto
          hintmask 11110110
          -219 hlineto
          endchar
        </CharString>
        <CharString name="gcircumflex">
          27 callsubr
          211 36 callgsubr
          hintmask 11011110
          41 callsubr
          hintmask 11101110
          -70 callgsubr
          5 callgsubr
          hintmask 11011110
          -27 callgsubr
          hintmask 11101110
          16 callsubr
          -103 338 -106 callgsubr
          endchar
        </CharString>
        <CharString name="gcircumflex.smcp">
          57 callsubr
          177 -20 74 callsubr
          hintmask 11111100
          369 735 -106 callgsubr
          -156 -378 rmoveto
          hintmask 11111010
          -82 callsubr
          250 vlineto
          hintmask 11111100
          -219 hlineto
          endchar
        </CharString>
        <CharString name="gcommaaccent">
          -6 -240 86 0 154 0 83 354 83 -10 -20 30 58 230 -20 hstemhm
          48 91 133 48 -48 94 95 91 hintmask 1010111101100000
          366 578 rmoveto
          94 vlineto
          hintmask 1011001110100000
          -46 hlineto
          hintmask 0100111101100000
          48 20 19 26 14 vhcurveto
          55 vlineto
          -30 -13 -64 -36 -87 vvcurveto
          -94 vlineto
          200 -68 rmoveto
          -11 -64 rlineto
          -3 hlineto
          -70 callgsubr
          hintmask 1010111110100000
          5 callgsubr
          -27 callgsubr
          hintmask 1011001110100000
          16 callsubr
          endchar
        </CharString>
        <CharString name="gcommaaccent.smcp">
          -25 -17 callgsubr
          45 84 158 0 76 0 163 0 85 hstemhm
          55 88 145 95 -57 57 84 78 hintmask 1110011011000000
          326 234 rmoveto
          -82 callsubr
          hintmask 1111011011000000
          250 -219 vlineto
          hintmask 1110101101000000
          -38 -363 rmoveto
          -94 47 vlineto
          -100 callgsubr
          endchar
        </CharString>
        <CharString name="gdotaccent">
          27 callsubr
          88 96 hstemhm
          48 91 131 96 95 91 hintmask 11011111
          41 callsubr
          hintmask 11101111
          -70 callgsubr
          5 callgsubr
          hintmask 11011111
          -27 callgsubr
          hintmask 11101111
          16 callsubr
          -191 215 -30 callsubr
          endchar
        </CharString>
        <CharString name="gdotaccent.smcp">
          57 callsubr
          54 96 hstemhm
          55 88 134 96 -47 219 -78 78 hintmask 11111101
          277 612 -30 callsubr
          hintmask 11111010
          49 -378 rmoveto
          hintmask 11111101
          -82 callsubr
          250 vlineto
          hintmask 11111010
          -219 hlineto
          endchar
        </CharString>
        <CharString name="germandbls">
          -27 -10 81 -50 -21 309 70 244 85 hstemhm
          79 91 263 91 -52 91 hintmask 01111100
          415 351 rmoveto
          1 vlineto
          53 17 56 41 102 vvcurveto
          136 -117 60 -102 -132 -94 -79 -143 vhcurveto
          -486 91 475 vlineto
          119 69 29 65 80 49 -46 -75 -69 -60 -54 -95 vhcurveto
          -8 -70 21 hlineto
          hintmask 10111010
          103 78 -44 -80 -94 -76 -20 -38 -46 -38 11 13 -26 hvcurveto
          -4 -82 hlineto
          -12 30 45 -11 54 hhcurveto
          95 95 59 125 118 -86 44 -62 15 hvcurveto
          endchar
        </CharString>
        <CharString name="grave">
          -391 599 -21 133 -20 hstem
          35 711 rmoveto
          113 -133 rlineto
          62 hlineto
          -76 133 rlineto
          endchar
        </CharString>
        <CharString name="grave.cap">
          -391 771 -21 133 -20 hstem
          35 883 rmoveto
          113 -133 rlineto
          62 hlineto
          -76 133 rlineto
          endchar
        </CharString>
        <CharString name="greater">
          -57 63 -21 508 -20 hstem
          68 462 rmoveto
          367 -165 rlineto
          -2 vlineto
          -367 -165 rlineto
          -88 vlineto
          471 214 rlineto
          80 vlineto
          -471 214 rlineto
          endchar
        </CharString>
        <CharString name="greaterequal">
          -7 0 73 511 -20 hstem
          81 496 rmoveto
          382 -144 rlineto
          -2 vlineto
          -382 -144 rlineto
          -88 vlineto
          486 193 rlineto
          80 vlineto
          -486 193 rlineto
          486 -511 rmoveto
          -486 -73 486 hlineto
          endchar
        </CharString>
        <CharString name="guillemotleft">
          -52 29 callsubr
          208 hmoveto
          193 224 rlineto
          -104 hlineto
          -186 -224 186 -223 rlineto
          104 hlineto
          endchar
        </CharString>
        <CharString name="guillemotright">
          -52 53 -21 447 -20 hstem
          451 255 rmoveto
          -193 -223 rlineto
          45 callgsubr
          -208 -447 rmoveto
          45 callgsubr
          193 -224 rlineto
          endchar
        </CharString>
        <CharString name="guilsinglleft">
          -260 29 callsubr
          endchar
        </CharString>
        <CharString name="guilsinglright">
          -260 53 -21 447 -20 hstem
          243 255 rmoveto
          -193 -223 rlineto
          45 callgsubr
          endchar
        </CharString>
        <CharString name="h">
          42 callsubr
          210 -20 hstem
          79 52 callsubr
          vstem
          356 -7 callsubr
          -91 -730 91 340 hlineto
          -86 callgsubr
          vhcurveto
          endchar
        </CharString>
        <CharString name="h.smcp">
          -14 21 -21 235 80 235 -20 hstem
          89 88 270 87 vstem
          447 550 43 callsubr
        </CharString>
        <CharString name="hbar">
          42 callsubr
          67 67 76 -20 hstem
          79 52 callsubr
          vstem
          1 587 rmoveto
          78 -587 91 340 hlineto
          -86 callgsubr
          -89 -52 -43 -46 -42 vhcurveto
          -3 156 137 67 -137 76 -91 -76 -78 hlineto
          endchar
        </CharString>
        <CharString name="hbar.smcp">
          -6 21 -21 235 80 91 53 91 -20 hstem
          93 88 270 87 vstem
          600 459 rmoveto
          -62 91 -87 -91 -270 91 -88 -91 -62 -53 62 -406 88 235 270 -235 87 406 62 hlineto
          -149 -91 rmoveto
          -270 91 270 hlineto
          endchar
        </CharString>
        <CharString name="hcircumflex">
          42 callsubr
          382 -20 hstem
          79 52 callsubr
          vstem
          356 -7 callsubr
          -91 -730 91 340 hlineto
          -86 callgsubr
          vhcurveto
          -191 382 -106 callgsubr
          endchar
        </CharString>
        <CharString name="hcircumflex.smcp">
          -14 21 -21 235 80 420 -20 hstem
          89 88 270 87 vstem
          349 735 -106 callgsubr
          -15 -62 43 callsubr
        </CharString>
        <CharString name="hookcmb">
          -637 529 -21 169 -20 hstem
          -150 62 vstem
          -203 677 -107 callgsubr
          endchar
        </CharString>
        <CharString name="horncmb">
          -637 391 44 263 -20 hstemhm
          -195 0 callsubr
          hintmask 11100000
          -195 698 62 callgsubr
          hintmask 11010000
          56 hlineto
          -116 -30 -37 -112 vhcurveto
          -44 vlineto
          134 60 57 144 hvcurveto
          106 vlineto
          endchar
        </CharString>
        <CharString name="hungarumlaut">
          -238 578 133 hstem
          111 711 rmoveto
          -76 -133 rlineto
          62 hlineto
          113 70 callsubr
          155 hmoveto
          -76 -133 rlineto
          61 hlineto
          114 70 callsubr
          endchar
        </CharString>
        <CharString name="hungarumlaut.cap">
          -238 750 133 hstem
          111 84 callsubr
          -99 hlineto
          155 hmoveto
          -76 -133 rlineto
          61 hlineto
          114 70 callsubr
          endchar
        </CharString>
        <CharString name="hyphen">
          -229 240 81 hstem
          334 240 rmoveto
          81 -260 -81 vlineto
          endchar
        </CharString>
        <CharString name="hyphen.inferior">
          -392 -11 48 hstem
          195 -11 rmoveto
          48 -146 -48 vlineto
          endchar
        </CharString>
        <CharString name="hyphen.superior">
          -392 622 48 hstem
          195 622 rmoveto
          48 -146 -48 vlineto
          endchar
        </CharString>
        <CharString name="i">
          10 callgsubr
          128 98 -12 callsubr
          66 callgsubr
          endchar
        </CharString>
        <CharString name="i.smcp">
          -371 81 callsubr
          89 88 vstem
          177 550 rmoveto
          -88 -550 88 hlineto
          endchar
        </CharString>
</ttFont>
